<svg xmlns="http://www.w3.org/2000/svg" viewBox="0 0 1080 1080" fill="currentColor"><path d="M525 16h32l32 2 32 4 32 6 25 6 31 9 11 4 9-3 12-4 6-1h25l15 3 21 7 25 12 20 12 16 11 21 16 11 9 14 12 13 12 13 12 12 12 7 8 14 15 9 11 13 16 13 18 11 17 12 22 8 20 4 14 1 6v25l-3 12-7 14 1 6 11 33 9 36 6 32 4 32 2 29v39l-2 30-5 38-6 30-7 28-10 32-1 7 4 10 2 9v29l-5 21-10 25-10 19-14 22-14 19-11 14-11 13-7 8-9 10-11 12-21 21-8 7-11 10-11 9-16 13-18 13-19 12-23 12-18 7-18 4h-25l-14-4-10-5-6 1-34 11-36 9-33 6-33 4-33 2h-25l-34-2-33-4-32-6-25-6-31-9-14-5-7 1-12 4-5 1h-28l-18-4-20-7-17-8-22-13-19-13-21-16-11-9-14-12-13-12-15-14-9-9-7-8-14-15-9-11-14-17-10-14-12-18-9-16-8-16-7-20-3-15v-20l2-11 8-17 1-2-11-33-10-40-6-33-3-23-2-24-1-33 1-29 3-33 6-37 6-27 7-26 9-27-2-6-4-11-2-10v-25l4-18 5-15 8-18 12-22 8-12 12-17 10-13 8-10 11-13 9-10 9-10 33-33 8-7 15-13 14-11 16-12 15-10 19-11 21-10 19-6 11-2h21l13 3 16 8 7-1 31-10 36-9 26-5 29-4 22-2Zm-8 128-23 2-27 4-26 6-9 3 5 12 12 26 16 38 15 40 9 25 12-1 25-3h31l25 3h5l12-36 11-31 14-35 16-35 2-6-26-6-27-4-24-2Zm20 278-19 2-14 4-13 5-14 7-13 10-10 9-7 8-8 11-8 15-7 19-3 16v30l3 16 8 21 7 13 9 12 18 18 10 7 17 9 21 7 11 2h33l18-4 15-6 14-7 12-9 12-11 9-10 9-14 8-18 5-17 2-16v-16l-2-16-5-17-8-18-7-11-11-13-9-9-13-10-15-8-19-7-14-3Zm387 10-34 16-38 16-34 13-35 13 4 25 1 11v34l-3 24v5l35 11 41 15 33 14 24 11 8 4h2l6-26 4-27 2-22v-52l-3-31-5-28-6-23Zm-769 8-6 25-4 24-3 34v40l3 34 5 29 6 24 2 1 34-16 38-16 34-13 33-12 1-1-1-11-3-27v-24l3-27 1-9-49-16-34-13-26-11-24-11Zm437 345-25 4-12 1h-28l-25-3-8-1-3 8-12 36-11 30-12 29-15 33-3 7 24 6 24 4 18 2 15 1h44l24-2 28-4 26-6 10-3-9-20-9-19-17-41-16-42-7-20Z"/></svg>
