<svg xmlns="http://www.w3.org/2000/svg" viewBox="0 0 1080 1080" fill="currentColor"><path d="M522 31h48l33 3 30 5 36 9 30 10 28 12 24 12 17 10 24 16 12 9 16 13 10 9 8 7 18 18 7 8 9 10 9 11 9 10 11 15 8 16 4 13 1 5v24l-2 10 9 17 11 25 11 29 9 29 8 33 6 35 3 29 1 16v40l-2 25-4 28v3l12 9 12 11 12 12 11 14 10 15 9 16 10 21 7 20 6 21 5 28 2 21v33l-3 29-5 24-7 24-10 24-9 17-12 18-7 9-11 13-7 8-12 12-16 12-21 12-21 8-17 5-22 4-18 2-19 1h-22l-30-1-21-3-16-5-19-9-14-10-14-12-11-12-12-17-9-16-8-20-6-21-3-18-1-19V719l2-23 4-19 7-21 8-17 10-16 9-12 12-13 10-9 16-11 16-8 18-6 19-3h74l-1-57-3-34-4-27-6-27-7-24-8-22-12-25v-2l-10-1-13-5-10-6-13-11-9-10-9-12-13-15-11-12-10-10-11-9-17-13-18-11-21-11-20-8-19-6-22-5-20-3-12-1h-35l-25 3-24 5-20 6-21 8-25 12-21 13-16 12-14 12-8 8-5 5-9 9-11 14-12 16-10 10-14 9-12 5-12 3-8 16-8 18-9 27-6 24-5 27-4 35-1 17-1 53h66l19 3 18 6 16 8 12 8 14 12 9 9 13 17 11 19 7 16 6 18 4 19 2 22v162l-2 22-5 22-7 20-8 16-9 15-10 13-13 14-11 9-15 10-17 8-16 5-21 3-28 1h-25l-29-2-24-4-19-5-19-7-16-8-14-9-14-11-16-16-9-11-8-10-7-10-8-13-10-19-10-26-7-26-4-23-2-23v-31l3-29 6-29 11-33 14-29 12-19 11-14 12-13 11-11 14-11 9-6-4-38-1-20v-23l2-34 4-32 7-36 6-24 9-29 11-28 9-20 10-20-2-12v-21l4-16 5-12 8-12 8-10 10-13 11-13 11-12 12-13 10-9 12-11 14-11 16-12 15-10 20-12 22-12 27-12 27-10 27-8 30-7 34-5Z"/></svg>
