<svg xmlns="http://www.w3.org/2000/svg" viewBox="0 0 1080 1080" fill="currentColor"><path d="M523 5h26l24 3 21 5 21 7 21 10 16 10 11 8 11 9 11 10 7 8 11 13 12 18 13 25 8 22 6 26 2 16v37l-3 22-5 20-7 20-10 21-12 19-11 14-12 13-10 10-14 11-9 6v11l26 273v4l20 1h40l21-3 14-4 10-4 9-7 5-8 3-21-30 7-15 1-14-3-14-7-8-7-7-10-5-12-1-4v-21l9-31 22-72 24-79 17-56 6-12 8-10 10-7 8-4 14-3h9l14 3 12 6 10 9 11 11 7 8 8 8 7 8 7 7 7 8 8 8 7 8 7 7 7 8 8 8 7 8 8 8 7 8 7 7 7 8 8 8 7 8 8 8 7 8 7 7 7 8 8 11 5 13 1 6v13l-3 13-6 11-9 10-5 4-14 7-28 7 5 28 2 20v38l-3 24-5 22-8 24-12 25-10 16-10 13-10 11-7 8-13 12-14 11-18 12-19 11-27 12-30 10-25 6-34 6-17 5-19 9-18 12-16 13-13 12-7 8-9 10-13 17-13 18-15 25-14 26-10 11-11 7-12 4-5 1h-22l-15-4-10-6-10-9-8-13-11-21-12-19-11-16-10-13-14-17-8-8-5-5-10-10-14-11-15-10-15-8-16-6-19-4-28-5-27-7-28-10-24-11-22-13-17-12-13-11-15-14-9-10-13-17-11-18-11-23-9-27-5-24-2-19v-39l3-27 4-20-31-8-14-8-9-9-6-10-4-11-1-5v-15l3-12 6-11 10-11 7-8 8-8 7-8 8-8 7-8 7-7 7-8 8-8 7-8 8-8 7-8 7-7 7-8 8-8 7-8 7-7 7-8 8-8 7-8 8-8 7-8 12-12 12-7 10-3 7-1h9l14 3 13 7 6 5 9 12 6 15 16 53 24 79 24 79 6 21v20l-4 13-6 10-7 8-11 7-10 4-11 2-15-1-30-7 2 17 3 8 6 7 10 6 16 5 16 3 9 1h40l20-1 2-26 24-251v-5l-15-10-14-11-15-14-11-12-11-15-11-18-10-21-9-27-4-19-2-17v-32l3-23 5-21 7-20 10-21 10-16 9-12 11-13 16-16 14-11 15-10 18-10 25-10 23-6 18-3Z"/></svg>
