<svg xmlns="http://www.w3.org/2000/svg" viewBox="0 0 1080 1080" fill="currentColor"><path d="M710 5h39l28 2 30 4 27 6 26 8 26 11 20 11 18 12 14 11 14 12 18 18 11 14 10 14 11 19 9 19 7 19 6 22 5 27 2 18 1 19v19l-2 27-5 29-7 24-8 21-12 25-14 23-14 19-13 16-13 15-16 17-16 16-8 7-8 8-8 7-12 11-12 11-9 10-12 17-9 17-6 18-2 11-2 32-4 18-6 14-9 13-10 11-12 9-16 8-14 4-6 1h-65l-14-3-13-5-12-7-11-9-9-10-9-14-6-15-3-15v-42l3-28 5-25 7-25 8-21 14-29 12-20 11-16 13-17 11-13 11-12 11-12 7-7 8-7 17-16 12-11 9-9 7-8 13-15 12-18 8-16 3-9 1-5v-12l-3-12-7-14-11-12-14-9-14-5-14-3-11-1h-15l-21 3-18 6-14 7-12 9-9 9-8 13-3 9-5 30-6 16-6 11-8 10-9 9-11 7-14 6-15 3h-71l-17-4-16-8-9-7-5-5-8-9-6-10-7-19-3-16-1-11v-16l2-21 5-26 7-24 10-25 13-25 12-18 12-16 12-13 4-5 8-7 12-11 16-12 19-12 22-12 23-10 27-9 24-6 29-5 19-2ZM138 9h151l16 3 16 6 12 7 11 9 9 12 6 13 3 15v18l-5 59-42 526-2 16-5 16-7 13-11 12-8 7-15 8-13 4-6 1h-69l-15-3-13-5-11-7-11-10-9-14-6-16-3-18-44-580V76l4-18 8-16 9-10 10-9 15-8 13-4Zm562 823h32l19 4 16 6 15 8 12 9 12 11 10 12 9 15 7 16 5 19 1 7v31l-3 16-5 15-8 16-8 12-10 11-5 5-9 8-14 9-17 8-17 5-13 2h-27l-20-4-15-5-17-9-11-8-10-9-8-8-10-14-9-17-6-18-3-17v-27l3-17 6-18 10-19 10-13 6-7 8-7 12-9 16-9 17-6 12-3Zm-502 1h32l16 3 15 5 16 8 12 8 12 11 9 9 9 13 9 17 6 18 3 17v26l-3 17-5 16-8 16-7 11-9 11-10 10-15 11-17 9-18 6-17 3h-27l-17-3-18-6-19-10-13-10-8-7-7-8-10-14-8-16-5-13-4-19-1-19 2-20 5-19 7-16 9-15 12-14 12-11 15-10 17-8 17-5Z"/></svg>
