<svg xmlns="http://www.w3.org/2000/svg" viewBox="0 0 1080 1080" fill="currentColor"><path d="M1007 35h11l16 4 10 6 10 9 6 10 3 9 1 7v13l-7 12-11 14-9 10-7 8-16 17-50 50-8 7-13 13-8 7-8 8-8 7-17 16-15 14-13 12-15 14-12 11-13 12-15 14-17 16-6 7-1 2 4 2 11 9 10 11 8 13 3 9 1 5v12l-3 12-8 15-9 12-10 11-7 8-26 26-8 7-1 4 6 12 5 19 1 8v20l-3 17-5 15-8 15-8 10-15 16-260 260 6 7 19 19 8 13 4 13 1 8v10l-3 15-5 13-9 13-8 8-11 7-13 5-6 1h-19l-16-4-12-6-15-13-126-126-7 6-9 9 6 7 29 29 9 14 4 10 2 8v21l-4 13-6 12-11 13-12 9-13 6-15 3h-10l-15-3-16-8-13-11L39 885l-8-11-5-10-3-10-1-7v-15l4-16 6-12 9-11 11-9 15-7 8-2 20-1 14 3 15 8 14 12 19 19 4-2 12-12-2-4L68 695l-10-13-5-10-4-16v-15l3-14 5-12 7-10 10-10 12-7 12-4 5-1h22l15 4 15 8 12 11 4 4v2l8-7 271-271 15-10 14-6 14-4 16-2h13l19 3 15 5 13 7 4-2 42-42 11-9 14-10 11-5 11-3h14l13 4 10 6 13 11 12 14v2l8-7 16-16 8-7 16-16 8-7 15-15 8-7 16-16 8-7 15-15 8-7 16-16 8-7 15-15 8-7 16-16 8-7 15-15 8-7 17-17 8-7 14-14 10-6 8-3ZM512 415l-9 4-9 6-15 14-9 10-12 13-9 10-11 12-12 13-16 17-25 25-8 7-9 9-8 7-4 5 13 12 9 9 8 7 10 10 8 7 11 11 8 7 10 10 8 7 11 11 8 7 10 10 8 7 11 11 8 7 11 11 8 7 4 3 142-142 5-9 1-5v-8l-4-11-11-12-50-50-7-8-38-38-11-9-12-9-9-4-4-1Z"/></svg>
