<svg xmlns="http://www.w3.org/2000/svg" viewBox="0 0 1080 1080" fill="currentColor"><path d="M518 6h27l20 3 21 6 18 8 14 8 16 12 10 9 15 15 12 16 10 17 7 16 6 18 4 18 2 14v37l-3 20-1 3 10 3 13 7 11 9 10 11 8 13 5 13 2 9v8l89-2 26 1 23 3 19 5 12 5 13 9 15 15 7 11 6 13 5 18 3 21 1 12v55l-1 34v28h12l16 4 16 8 12 9 8 8 7 10 7 14 4 13 1 7v199l-4 17-8 16-4 6-9 10-10 9-14 8-14 5-12 2h-8l1 56v34l-2 23-4 19-4 12-8 15-11 12-8 7-11 8-15 8-13 4-10 2-11 1H196l-14-2-18-6-15-8-11-9-5-4-7-8-7-10-8-15-5-16-2-12-1-111-17-3-12-5-11-6-13-11-9-11-7-12-6-18-1-7V599l4-17 8-16 8-11 10-10 14-9 8-4 13-4 12-1v-32l-1-33v-49l2-23 5-25 5-13 7-13 11-12 8-8 14-9 16-6 18-4 19-2h62l38 1 1-11 5-16 8-14 11-12 10-9 14-8 5-1-4-22-1-9v-30l3-21 7-24 8-18 9-16 12-16 11-12 12-12 13-10 18-11 21-10 22-7 16-3Zm10 129-12 3-10 6-7 6-7 10-4 10-1 4v19l5 19 5 11h65l6-15 3-14v-18l-3-12-6-11-7-8-9-6-7-3Zm201 366-18 4-12 5-11 6-14 11-7 7-11 15-8 17-4 14-1 7v19l4 18 7 16 8 12 11 12 9 8 13 8 13 6 15 4 9 1h10l14-2 18-6 16-9 13-11 10-11 10-16 6-15 3-12 1-18-2-14-5-16-9-17-9-11-11-11-15-10-16-7-18-4Zm-396 1-16 2-15 4-16 8-11 8-8 7-9 12-8 15-5 16-2 12v19l3 17 6 16 7 12 8 10 8 8 15 10 14 6 15 4 7 1h22l16-3 16-6 14-8 13-12 9-11 8-15 5-16 2-12v-21l-3-16-6-16-9-15-12-13-14-10-15-7-14-4-16-2Zm203 143-9 3-7 7-13 19-12 16-13 19-12 16-11 16-1 3v12l5 8 5 4 8 3h125l8-3 5-4 5-10v-9l-4-8-13-18-13-18-12-17-13-18-10-14-6-5-7-2ZM359 838l-14 2-13 5-10 7-7 7-7 12-4 13-1 16 3 15 8 16 7 8 10 7 12 5 10 2h41V838Zm132 0v115h90V838Zm187 0v115h37l12-3 12-6 12-11 7-10 5-12 1-4v-22l-5-15-7-10-7-8-14-9-12-4-10-1Z"/></svg>
