<svg xmlns="http://www.w3.org/2000/svg" viewBox="0 0 1080 1080" fill="currentColor"><path d="M514 21h49l37 3 8 2 7 6 2 5v9l-3 6-8 6-18 10-26 16-22 15-18 13-18 14-17 14-13 11-5 2h-9l-6-3-14-10-16-13-10-9-8-7-22-22-7-8-8-10-2-5v-9l5-8 8-4 24-7 29-7 36-6 28-3Zm258 60h10l22 12 22 14 17 12 12 9 16 13 11 9 16 15 20 20 2 4v12l-4 6-6 4-10 1-31-2h-42l-44 3-30 2-27 1h-36l-40-2-28-3-30-5-12-3-5-4-3-6v-11l4-6 10-8 24-16 18-11 21-12 21-11 29-13 26-10 31-10ZM271 96l9 1 6 4 11 13 8 10 12 14 12 13 15 16 10 9 14 13 11 9 14 11 4 6v12l-4 7-9 10-11 14-11 14-14 19-14 20-6 8-5 4-2 1h-10l-10-5-17-11-22-14-22-14-19-12-22-14-22-14-19-12-10-7-4-8v-8l4-8 9-9 7-8 22-22 8-7 14-12 15-12 18-13 18-12 8-5Zm211 167h7l29 10 31 9 33 7 31 5 29 3 33 2h63l38-2 37-3 21-1h28l33 2 31 4 31 6 27 7 21 7 6 5 10 23 11 30 10 35 7 32 5 33 3 34v57l-3 34-5 33-6 28-8 29-10 30-11 27-5 6-7 3h-7l-12-6-25-16-19-12-22-14-22-14-19-12-22-14-22-14-22-14-19-12-22-14-22-14-19-12-22-14-22-14-19-12-22-14-22-14-22-14-19-12-22-14-22-14-19-12-22-14-22-14-19-12-22-14-22-14-8-6-3-4-1-4v-7l5-10 12-17 14-19 13-16 8-10 11-13 10-11 5-5ZM92 289l10 2 18 11 25 16 22 14 19 12 22 14 22 14 22 14 14 9 5 5 2 4v11l-15 33-12 28-10 25-5 6-5 2h-10l-27-10-27-9-30-8-34-7-35-5-21-2-7-3-5-5-2-4v-11l6-28 8-30 11-32 10-24 9-20 9-16 5-4Zm262 167 9 1 12 7 25 16 19 12 22 14 22 14 19 12 22 14 22 14 19 12 22 14 22 14 22 14 19 12 22 14 22 14 19 12 22 14 22 14 19 12 22 14 22 14 22 14 19 12 22 14 22 14 19 12 22 14 22 14 5 5 2 4v11l-4 7-13 16-12 14-12 13-25 25-8 7-14 12-17 13-18 13-15 10-15 9-18 10-23 12-25 11-27 10-15 5h-11l-9-6-13-11-13-12-17-17-7-8-11-13-13-17-13-18-15-23-13-22-10-18-12-23-13-26-15-33-12-24-14-24-13-21-14-20-13-17-13-16-9-10-7-8-14-15-13-13-8-7-12-11-11-9-15-12-18-13-10-7-4-8v-8l10-28 12-29 12-26 7-5ZM32 552h15l25 3 29 5 32 8 36 12 20 8 10 5 4 5 2 5-1 12-5 27-5 35-3 30-1 17v65l2 27 4 33 6 33 3 14-1 10-6 7-8 3-10-2-8-7-16-16-7-8-12-14-13-17-12-16-13-20-12-20-14-26-15-33-11-30-9-29-8-33-6-36-3-29v-17l4-7Zm258 105h11l7 4 12 11 8 7 28 28 7 8 11 13 12 16 13 18 15 24 12 22 8 15 15 33 16 33 12 23 13 23 14 23 11 17 11 16 14 19 14 17 5 7 1 3v9l-3 6-6 5-3 1h-36l-35-3-28-4-29-6-27-7-31-10-6-5-15-20-12-19-9-16-14-29-11-30-8-28-6-27-5-33-3-35v-58l3-38 3-22 4-7Z"/></svg>
