<svg xmlns="http://www.w3.org/2000/svg" viewBox="0 0 1080 1080" fill="currentColor"><path d="M534 101h34l23 3 25 6 21 7 20 9 25 13 21 12 23 13 25 14 25 14 29 16 26 14 22 12 32 17 25 13 19 10 20 10 16 8 46 23 19 9 9 7 5 5 7 9 6 13 2 8 1 17-3 16-7 14-5 8-11 27-11 33-8 32-6 32-4 33-2 26 5 2 11 8 11 11 10 15 7 16 4 16 1 7v23l-3 16-6 16-8 13-10 12 2 5 8 10 12 18 10 17 12 25 6 21 2 21-2 16-5 15-6 10-8 10-9 9-6 4-16 6-22 5-23 3-12 1-34 1-22-2-17-4-15-6-11-8-7-7-7-14-4-17v-31l4-24 7-26 12-38 6-19-1-5-8-9-7-12-6-16-3-15v-28l4-17 6-15 9-14 9-10-1-8-3-17v-35l3-23 5-27 9-43-51 11-100 20-99 18-94 16-29 6-19 2h-36l-25-3-27-6-30-10-25-11-23-12-24-15-17-12-18-13-18-13-19-14-21-16-19-14-18-14-16-12-18-14-18-14-14-11-14-11-14-11-16-13-13-10-16-13-13-10-10-10-7-12-4-12-1-7v-15l3-13 7-14 11-12 9-7 11-5 12-3 437-51 24-4ZM110 458l5 3 12 11 11 9 10 9 11 9 17 14 14 11 13 10 19 14 23 16 22 14 24 14 23 12 26 12 24 9 26 8 26 6 26 4 20 2 22 1h17l27-1 42-4 42-6 46-8 100-20 74-15 4 1-22 83-20 74-12 44-6 15-8 15-8 11-11 13-7 7-14 11-15 10-20 11-25 10-25 8-31 7-26 4-30 3-17 1h-59l-41-3-39-5-34-6-38-9-31-9-28-10-33-15-19-11-20-14-13-10-11-9-12-11-10-9-9-10-13-16-11-17-9-17-8-21-5-18-4-26-1-18v-17l2-30 5-42 7-52 3-30Z"/></svg>
