<svg xmlns="http://www.w3.org/2000/svg" viewBox="0 0 1080 1080" fill="currentColor"><path d="M843 9h17l16 3 17 6 16 9 16 9 16 12 13 12 9 10 10 15 7 16 2 9 1 12-2 15-5 14-13 21-16 26-10 13-8 9-3 2-2 18-5 15-7 11-9 10-12 9-17 9-20 7-6 9-10 18-14 24-15 26-14 25-14 26-12 24-8 19-5 15-10 35-6 26-5 32-5 41-8 49-11 49-12 42-9 27-11 29-12 27-12 25-13 24-14 23-11 16-13 18-13 16-12 14-12 12-7 8-32 32-11 9-11 9-15 10-15 8-11 4-16 2h-14l-19-2-20-4-27-8-25-10-26-12-24-13-23-14-22-15-19-14-14-11-13-11-12-11-8-7-24-24-9-11-11-13-12-17-10-16-11-23-5-16-1-5v-25l3-18 5-18 8-19 12-25 10-18 13-24 16-26 14-20 13-17 13-16 13-15 16-17 18-18 8-7 12-11 11-9 16-13 12-9 18-13 27-18 21-13 26-15 24-13 17-9 23-11 29-14 22-13 17-12 17-13 14-12 8-7 10-9 8-8 8-7 14-15 10-10 7-8 11-12 7-8 12-14 12-14 12-14 11-13 2-3 1-27 3-17 6-16 7-11 7-8 11-8 15-7h2l1-5 5-10 10-14 9-11 14-17 8-10 4-5 10-8 16-8ZM612 428l-14 3-16 8-12 10-10 13-8 17-4 16v22l4 14 6 9 4 5 11 7 10 3 15 1 14-2 13-5 11-7 9-8 10-14 6-12 4-13 2-14v-8l-3-15-6-12-7-8-10-6-9-3-5-1ZM310 608l-16 15-9 10-11 14-14 18-12 18-9 15-8 17-2 8 1 7 12 15 8 10 11 13 12 13 12 13 11 11 8 7 15 14 11 9 16 13 19 14 15 10 18 11 22 12 20 9 19 7 19 5 22 3h12l21-21 9-11 12-16 11-17 15-26 9-17 1-7-4-4-39-14-26-11h-2l-1-10-6-16-8-14-9-12-11-12-11-10-17-12-16-9-15-6-13-4-11-2h-24l-8 1-12-13-11-12-9-11-12-15-7-9-1-1Z"/></svg>
