<svg xmlns="http://www.w3.org/2000/svg" viewBox="0 0 1080 1080" fill="currentColor"><path d="M417 13h26l30 3 38 6 43 9 55 13 65 17 91 25 53 14 42 9 21 7 19 10 11 8 12 10 7 8 11 14 11 19 10 23 6 18 7 28 4 20 18 61 24 82 21 72 19 65 3 18v18l-3 22-6 25-8 18-13 22-13 19-13 18-16 21-11 14-8 10-13 16-9 11-14 17-11 13-12 14-9 11-9 10-9 11-9 10-9 11-10 11-9 11-11 12-9 11-9 10-9 11-11 13-11 14-10 13-12 13-7 8-11 12-14 14-14 11-16 10-17 7-16 4-7 1h-32l-24-4-25-7-22-8-28-10-57-18-64-20-56-18-47-16-40-15-33-14-23-11-15-9-13-10-16-16-9-11-9-12-9-16-7-19-47-141-14-43-38-114-9-32-6-29-3-22-1-12v-25l2-20 5-20 7-16 7-11 9-10 7-7 8-7 18-18 7-8 9-9 7-8 16-17 9-10 14-15 9-10 12-13 12-13 14-15 14-15 16-17 15-15 7-8 33-33 8-7 11-11 8-7 11-10 11-9 16-13 20-14 16-8 8-3 11-3 12-3Zm38 65-20 2-15 4-13 5-13 7-10 8-8 8-6 10-2 7v8l4 10 8 8 10 5 11 3 7 1h15l19-3 21-7 16-9 11-9 8-10 4-8 1-4v-10l-4-9-7-7-12-6-12-3Zm270 71-14 3-16 5-16 8-11 9-8 8-6 10-3 8v10l4 8 7 7 10 5 13 4 17 2 20-2 17-5 16-8 12-9 8-8 8-11 3-8v-10l-5-10-7-6-12-6-11-3-7-1Zm-390 43-20 4-19 7-15 9-12 11-7 11-2 6v14l6 9 8 7 11 5 17 3h10l21-3 18-6 16-8 14-11 8-11 4-9 1-9-2-8-6-8-9-7-14-5-6-1Zm280 73-18 4-16 6-15 9-9 8-7 10-4 8-2 9 1 12 4 10 9 10 9 6 11 4 11 2h14l18-3 15-5 17-9 11-9 8-10 5-10 1-4v-16l-5-12-7-8-11-7-12-4-6-1Zm-386 41-19 3-21 7-13 7-13 10-7 8-5 10-2 9 1 9 3 6 8 9 11 7 16 5 9 1h10l19-3 15-5 15-8 10-8 7-7 8-14 2-8v-14l-6-9-8-7-11-5-16-3Zm679 36-9 4-10 7-7 8-9 14-8 17-6 21-1 6v21l4 11 9 8 9 2 11-4 11-8 7-7 9-14 7-14 5-16 2-10 1-17-2-13-4-8-4-5-6-3Zm-399 51-19 4-15 6-11 6-10 8-9 10-6 12-1 4v15l4 10 6 8 7 6 12 6 14 3h16l18-3 19-7 11-6 9-7 9-9 7-13 2-9v-9l-3-10-6-9-9-8-11-5-12-3Zm337 180-12 6-10 9-10 13-8 15-6 17-3 15-1 15 2 13 4 8 7 6 9 2 11-4 9-6 10-10 9-14 7-15 5-16 2-12v-19l-4-13-7-8-4-2Zm-702 1-9 3-5 5-3 8 1 9 5 13 7 11 13 15 12 10 14 9 14 6 9 2h13l9-3 5-8 1-3v-12l-4-11-8-12-12-13-14-11-14-9-11-5-15-4Zm650 221-9 4-6 4-7 6-10 13-9 17-7 21-2 10v22l4 12 7 8 4 2h10l12-6 10-9 9-12 8-14 7-19 3-14 1-14-2-14-5-10-7-6-3-1ZM479 899l-9 3-4 5-3 9 1 11 5 12 7 10 9 10 7 7 15 11 16 8 11 4 5 1h12l8-3 4-5 3-9-1-10-4-11-9-13-11-12-15-12-14-8-14-6-9-2Z"/></svg>
