<svg xmlns="http://www.w3.org/2000/svg" viewBox="0 0 1080 1080" fill="currentColor"><path d="M535 103h9l17 2 17 5 16 8 14 10 12 12 7 10 5 8 8 20 3 15v28l-4 18-7 16-6 10 1 5 140 280h2l8-8 8-7 19-19 8-7 20-20 8-7 19-19 6-5-1-11-1-20 2-17 5-16 8-16 6-9 9-11 13-11 15-9 19-7 17-3h18l14 2 16 5 16 8 14 10 12 12 7 10 9 17 5 15 2 11v26l-3 15-4 12-8 16-10 13-12 12-10 7-17 9-9 3h-3l-2 10-23 82-20 71-25 89-22 78-11 38-10 21-12 16-14 14-14 10-21 10-19 5-20 2-242-1-220-1-32-1-16-3-15-5-16-8-14-10-12-11-12-15-8-14-7-19-28-98-27-95-29-102-17-60v-3l-9-2-17-8-14-10-13-13-9-13-8-16-4-13-2-11v-27l4-18 8-19 9-13 9-10 11-10 13-8 16-7 16-4 9-1h18l17 3 19 7 15 9 15 13 11 14 9 17 5 15 2 10 1 19-2 18v5l15 14 17 17 8 7 19 19 8 7 19 19 8 7 3 3 10-19 132-264-1-4-6-10-6-15-4-18v-28l4-18 7-16 7-12 11-13 10-9 15-10 14-6 14-4Zm-3 492-17 4-16 8-10 8-10 10-7 10-9 17-5 15-3 16-1 15 2 22 4 15 6 15 7 12 8 10 5 6 14 11 17 8 13 3h20l16-4 15-8 9-7 5-4 9-11 9-14 6-14 4-14 2-12 1-15-2-21-5-19-9-19-10-14-11-11-10-7-14-7-17-4Z"/></svg>
