<svg xmlns="http://www.w3.org/2000/svg" viewBox="0 0 1080 1080" fill="currentColor"><path d="M887 20h17l18 2 21 5 19 8 11 6 17 12 13 13 11 15 10 18 7 19 4 17 2 17v21l-3 23-6 23-8 21-12 23-8 12-14 19-13 16-11 13-9 11-13 14-7 8-12 13-7 7-7 8-22 22-7 8-16 16-8 7-26 26-8 7-12 12-8 7-17 16-13 12-10 9-12 11-8 7-10 9-11 9-13 12-11 9-10 9-11 9-14 12-10 8-16 13-17 13-19 14-21 12-15 6-16 5-17 3h-30l-16-3-19-7-15-9-11-9-9-9-5-5-9-10-10-17-5-13-4-17-1-8v-24l3-19 6-20 9-21 12-20 11-16 12-17 13-18 13-18 16-21 14-19 14-18 14-18 11-14 11-14 13-16 11-14 11-13 9-11 11-13 9-11 9-10 9-11 11-12 7-8 9-10 9-10 11-12 14-15 43-43 8-7 11-10 11-9 13-10 19-12 15-8 23-9 18-5 18-3ZM238 649h13l22 3 20 5 16 6 21 10 22 13 17 12 13 11 12 11 7 8 13 17 9 15 8 16 6 15 6 25 3 22v13l-2 18-5 21-8 22-10 19-11 16-12 14-17 17-8 7-16 13-16 11-18 11-20 11-28 12-27 9-24 6-28 5-27 3-18 1h-28l-31-2-28-4-13-4-9-5-9-10-5-11-1-4v-16l5-14 11-12 12-9 6-6h2l2-4 6-8 7-14 4-14 2-13 1-13 2-65 3-30 5-25 9-27 11-23 14-21 9-11 11-12 13-11 15-10 15-8 16-6 16-4Z"/></svg>
