<svg xmlns="http://www.w3.org/2000/svg" viewBox="0 0 1080 1080" fill="currentColor"><path d="m192 10 19 2 207 34 35 6 13 5 11 7 7 6 8 11 17 28 17 28 17 28 14 23 17 28 14 23 14 23 17 28 14 23 14 23 17 28 14 23 14 23 17 28 14 23 14 23 11 18 4-2 13-10 13-10 13-10 13-10 13-10 13-10 13-9 12-5 10-2h18l15 4 13 7 12 11 13 17 10 13 11 15 5 10 3 10 1 7v13l-3 14-8 16-9 10-9 8-17 13-13 10-13 10-13 10-13 10-18 14-17 13-13 10-13 10-13 10-10 8 9 11 13 17 14 18 13 17 10 13 10 13 10 13 10 13 10 13 10 13 7 9v2l9-3 10-2 13-1 19 2 11 4 14 8 10 8 8 9 7 15 4 14 1 6v11l-3 17-5 13-8 15-10 14-9 10-7 8-11 11-8 7-16 13-17 12-21 13-17 9-15 6-19 5-6 1h-23l-14-3-17-9-10-8-7-7-6-10-5-13-3-13v-17l4-18 5-11 5-11-14-18-13-17-10-13-10-13-10-13-10-13-10-13-10-13-10-13-10-13-9-12-7 4-11 9-17 13-13 10-13 10-13 10-18 14-17 13-13 10-13 10-13 10-16 12-16 7-11 2h-13l-15-3-16-8-12-11-13-17-10-13-11-15-5-10-4-15v-17l4-16 7-13 11-12 13-10 13-10 13-10 13-10 13-10 13-10 7-5-2-4-12-12-7-8-18-18-7-8-17-17-7-8-18-18-7-8-17-17-7-8-17-17-7-8-18-18-7-8-17-17-7-8-17-17-7-8-18-18-7-8-17-17-7-8-18-18-7-8-17-17-7-8-17-17-7-8-7-7-7-11-5-13-2-13 1-20 23-236 3-14 5-11 6-9 5-6 12-9 13-6 9-2Z"/></svg>
