<svg xmlns="http://www.w3.org/2000/svg" viewBox="0 0 1080 1080" fill="currentColor"><path d="M531 37h13l25 2 22 4 24 7 21 9 17 9 12 8 14 11 13 12 11 12 12 17 10 17 9 21 6 18 5 24 2 15 1 14v22l-2 27-1 10 16-8 18-8 27-9 23-5 16-2h39l24 4 21 6 21 9 18 10 19 14 13 12 10 10 9 11 12 17 10 17 9 19 10 30 5 25 2 19v26l-3 25-5 21-7 20-8 17-11 18-11 14-9 10-14 14-14 11-18 12-18 10-20 9-25 9-10 2 13 17 14 21 10 18 8 17 7 20 5 19 3 18 1 13v18l-2 20-5 23-6 18-8 18-10 17-10 14-11 13-9 10-8 7-9 8-18 13-19 11-19 9-20 7-19 5-27 4h-33l-22-3-24-6-20-8-16-8-16-10-12-9-14-12-15-15-9-11-10-13-13-20-10-18-3-5-11 20-12 19-9 12-9 11-11 12-13 13-14 11-13 9-17 10-21 9-15 5-22 5-16 2h-34l-27-4-19-5-20-7-25-12-19-12-14-11-10-9-9-8-7-8-10-12-12-18-8-14-8-19-5-15-5-23-2-21v-16l2-20 4-20 6-20 6-15 10-21 13-21 14-19 7-8-31-11-24-11-21-12-16-12-13-11-17-17-10-13-12-19-11-23-7-21-5-25-2-25 1-27 5-30 8-26 8-19 11-21 8-12 12-16 15-16 12-11 15-11 15-9 16-8 21-8 22-5 15-2h39l26 4 26 7 21 8 20 9h1l-2-19v-46l3-23 4-18 5-17 9-21 8-15 8-12 10-13 14-15 14-12 16-11 16-9 17-8 24-8 23-5 15-2Zm4 426-19 3-16 5-16 8-12 9-10 10-10 14-8 17-4 13-2 11-1 16 2 20 4 15 7 16 9 14 11 12 8 7 15 9 15 6 18 4 9 1h13l19-3 16-5 16-8 13-10 9-9 10-14 8-17 5-19 1-7v-26l-3-16-4-12-8-16-8-11-9-10-11-9-14-8-17-6-14-3-9-1Z"/></svg>
