<svg xmlns="http://www.w3.org/2000/svg" viewBox="0 0 1080 1080" fill="currentColor"><path d="m347 11 21 1 14 5 11 8 8 9 8 16 3 12v18l-4 14-7 11-5 6 6 1 41 15 6 2 16-17 10-10 14-11 12-6 12-3 19 1 10 3 11 6 9 8 7 10 5 10 3 11v22l-4 12-6 10-2 3 9 3 35 16 24 11 8-6 8-8 8-7 11-10 11-9 14-12 16-12 24-16 19-11 23-12 25-11 26-10 29-8 28-5 11-1h22l16 2 17 5 15 8 12 10 10 13 7 15 5 17 2 13 1 22-2 28-5 28-7 26-9 27-11 26-12 25-10 19-13 21-11 16-10 13-9 11-11 12-4 5-8 7-8 7 2 6 19 41 8 18h3l9-6 10-4 5-1h19l13 4 11 6 10 9 8 10 6 14 2 11v8l-3 14-7 14-12 14-25 25 3 10 15 41h2l7-6 12-6 8-2 12-1 15 2 15 6 12 9 7 8 7 14 2 8v23l-5 13-8 12-11 12-25 25-5 5-3 3 1 8 5 23 2 20v17l-2 22-3 15-7 24-10 28-10 23-8 16-10 18-12 17-12 14-13 10-10 5-10 2-11-1-10-4-8-6-10-10-7-10-10-17-12-17-11-16-14-20-11-16-14-20-11-16-16-23-16-23-11-16-14-20-11-16-14-20-11-16-16-23-16-23-11-16-14-20-11-16-13-19-5 2-19 14-20 14-23 16-18 12-27 18-19 12-20 13-24 15-9 6h-2l9 37 12 55 7 38 2 15v10l-3 19-5 15-9 17-10 13-16 16-15 11-11 5-3 1h-16l-12-6-10-10-9-15-9-21-18-41-17-39-15-34-21 8-12 3-7 1h-14l-12-3-9-6-6-9-2-5-1-6v-13l3-15 5-15 4-10-9-3-43-19-41-18-19-8-18-8-13-8-10-9-6-9-2-7v-11l3-10 7-12 11-14 13-13 14-10 17-8 15-4 13-2h28l23 3 33 7 56 14 13 2 16-26 16-25 11-17 29-44 14-20 11-16 12-17 13-18 1-3-16-11-20-14-23-16-20-14-23-16-20-14-20-14-23-16-20-14-23-16-20-14-20-14-23-16-20-14-23-16-20-14-22-15-16-10-11-9-9-11-5-10-1-4v-15l4-11 8-11 7-8 11-9 18-12 16-9 29-14 28-11 24-8 23-5 15-2h37l20 3 19 5 5-2 15-16 23-23 14-10 11-5Z"/></svg>
