<svg xmlns="http://www.w3.org/2000/svg" viewBox="0 0 1080 1080" fill="currentColor"><path d="M523 11h40l32 2 31 4 30 6 26 7 30 10 26 11 25 12 24 14 16 10 14 10 12 9 16 13 12 11 8 7 23 23 7 8 11 13 13 17 11 15 13 20 9 15 12 22 13 27 11 27 12 36 9 36 5 27 4 32 1 14v61l-3 31-5 30-7 30-9 29-11 29-13 27-7 14-13 22-15 22-9 12-13 16-12 14-7 7-7 8-14 14-8 7-8 8-11 9-6 5v92l-2 21-4 20-6 16-7 12-11 12-11 10-14 9-14 6-17 4-9 1h-14l-19-3-18-6-14-7-12-9-10-9-10-13-8-16-2-5-5 12-6 11-8 10-7 8-13 10-15 8-15 5-16 3h-25l-20-4-15-6-14-8-14-12-9-11-8-13-5-12-8 16-7 11-11 12-13 10-10 6-15 6-14 4-15 2h-14l-19-3-15-5-13-7-10-8-16-15-9-14-6-15-4-17-2-15-1-17v-84l-16-13-10-9-8-7-17-16-9-10-13-14-8-10-14-18-16-24-9-15-10-18-11-22-11-27-12-36-7-28-5-27-3-22-2-22v-60l3-33 6-36 7-30 8-27 9-26 12-28 12-25 13-23 14-22 12-17 9-12 9-11 12-14 12-13 21-21 8-7 13-11 17-13 17-12 19-12 25-14 27-13 26-10 30-10 28-7 33-6 26-3 11-1ZM353 434l-17 3-15 5-16 8-11 8-13 11-9 11-8 11-10 21-4 15-2 13v15l2 14 5 16 8 17 9 13 10 12 11 9 10 7 17 9 15 5 10 2 10 1h10l15-2 15-4 18-8 12-8 10-8 12-12 12-17 8-17 5-17 2-14v-14l-3-19-7-19-8-14-9-12-10-11-13-10-13-8-16-7-16-4-8-1Zm361 2-17 3-15 5-16 8-14 10-12 12-9 13-8 16-5 16-3 19v18l3 19 6 18 7 14 8 11 11 12 12 9 14 8 12 5 21 5 8 1h20l18-3 16-5 16-8 13-9 11-10 10-13 9-17 5-15 3-15 1-10v-13l-3-20-5-16-8-17-8-11-9-10-9-8-13-8-12-6-15-5-17-3ZM532 641l-10 5-8 7-9 13-8 15-10 28-4 17-1 14 4 8 8 7 11 5 12 3 8 1h30l17-2 14-4 9-5 8-9 2-7-4-20-5-15-8-18-9-15-8-10-10-10-10-6-5-2Z"/></svg>
