<svg xmlns="http://www.w3.org/2000/svg" viewBox="0 0 1080 1080" fill="currentColor"><path d="M809 9h13l20 4 18 6 29 14 19 12 14 10 14 11 13 12 19 19 11 14 10 15 8 16 3 9 1 6v19l-4 14-6 11-14 18-1 3 13 17 10 15 9 15 8 15 8 20 4 15v26l-4 16-5 11-6 10-13 17-13 17-10 13-13 17-10 13-13 17-10 13-10 13-9 10-9 8-14 8-13 5-9 2-9 1h-9l-21-3-26-7-12-4-10 12-11 16-4 11-1 5v14l6 21 7 25 5 24 3 22 2 28v23l-2 28-4 27-6 27-9 29-11 27-13 26-12 20-11 16-9 12-11 13-7 8-9 10-12 12-8 7-14 12-19 14-19 12-16 9-16 8-20 9-25 9-30 8-20 4-22 3-27 2h-24l-29-2-32-5-32-8-26-9-23-10-24-12-21-13-19-13-12-10-11-9-15-14-11-11-7-8-11-13-12-16-10-15-11-19-12-23-8-19-8-22-8-29-5-26-3-23-1-13v-47l3-29 6-31 7-26 10-27 9-20 13-25 12-19 13-18 8-10 11-13 12-13 11-11 8-7 13-11 16-12 15-10 15-9 23-12 17-8 27-10 28-8 31-6 27-3 20-1h14l28 1 15-3 10-5 10-8 13-17 5-6-2-5-12-19-11-21-5-15-2-11v-20l3-14 5-13 7-12 14-18 13-17 13-17 10-13 13-17 10-13 13-17 11-14 9-9 15-10 16-6 16-3h15l22 3 25 6 27 9 17 7 5-5 10-13 8-9 11-7 12-5ZM308 588l-16 4-16 8-13 9-12 11-9 12-8 15-6 20-2 11-1 11v19l2 19 5 23 9 27 13 27 12 19 11 14 9 10 14 14 16 12 17 10 18 8 18 6 22 5 15 2 13 1h22l27-3 25-6 19-7 16-8 11-7 10-8 10-9 10-13 6-10 6-15 4-16 1-6v-18l-3-12-5-10-8-10-11-10-15-10-23-13-26-14-24-14-16-10-16-11-19-14-14-11-15-12-17-13-15-11-16-9-13-5-10-2Z"/></svg>
