<svg xmlns="http://www.w3.org/2000/svg" viewBox="0 0 1080 1080" fill="currentColor"><path d="M274 117h47l33 3 32 5 31 7 34 10 28 10 24 10 11-1 39-6 36-3h42l26 2 30 5 27 7 26 10 22 11 12 8 9 9 6 11 4 13 1 6v32l-4 23-7 26-10 28-14 32-1 3 14 24 9 17 12 27 9 24 8 28 6 29 2 17 10-2 31-3 22-1h21l31 2 27 4 26 6 24 8 20 9 18 10 9 7 8 9 5 10 4 15 1 9v17l-3 23-6 25-11 33-12 28-14 29-14 26-15 25-22 33-10 14-12 16-8 10-9 11-12 14-12 13-26 26-11 9-11 9-21 14-16 8-14 5-12 2h-10l-10-2-14-7-13-10-10-8-16-15-11-12-13-17-11-16-12-20-12-23-12-28-12-34-3-10-10 2-23 6-27 5-29 3h-57l-23-2h-8l-10 11-7 8-11 12-20 20-8 7-11 9-15 11-13 8-16 8-15 5-5 1h-20l-11-4-14-9-14-11-12-11-14-14-9-11-10-13-10-15-11-19-12-23-10-23-11-30-9-29-8-33-7-8-15-14-7-7-7-8-13-14-9-11-11-14-14-19-11-17-9-15-10-18-11-22-11-27-8-24-8-32-4-26-2-27v-16l2-27 4-24 7-25 8-20 8-16 9-16 10-14 9-11 9-10 15-15 14-11 14-10 15-9 21-11 25-10 19-6 25-6 23-4Zm-58 116-12 3-12 6-10 9-7 8-6 13-2 7-1 13 3 16 7 14 9 10 7 6 12 6 13 3h13l12-3 14-7 10-9 6-8 5-10 3-10v-19l-3-11-6-12-9-10-9-7-13-6-10-2Z"/></svg>
