<svg xmlns="http://www.w3.org/2000/svg" viewBox="0 0 1080 1080" fill="currentColor"><path d="M494 63h13l12 4 19 13 15 11 17 12 18 13 17 12 18 13 10 9 6 10 2 6v18l-5 14-7 11-13 19-12 17-13 18-13 18-13 18-14 19-13 18-14 19-13 18-8 11 4 4 18 13 18 13 18 13 18 13 18 13 18 13 18 13 19 14 14 10 18 13 18 13 5 3 12-16 10-14 13-18 13-18 14-19 13-18 13-18 13-18 14-19 10-14 11-13 10-8 11-5 5-1h12l12 4 10 6 14 11 18 14 14 11 14 11 14 11 18 14 10 9 6 8 3 7 1 13-2 10-5 12-9 16-10 13-8 10v2l15 11 10 8 10 9 5 4 9 12 4 9 1 12-3 12-8 16-11 16-13 17-6 8-1 2 4 2 11 8 10 9 9 9 7 12 2 9-1 13-6 15-10 16-13 16 12 10 12 9 14 11 9 10 9 15 6 18 2 12v17l-3 16-5 14-8 13-8 10-7 10-9 10-14 10-15 7-15 4-6 1h-20l-15-3-15-6-11-7-19-14-11-8-5 5-8 11-11 13-10 9-14 7-10 1-11-2-12-5-15-9-14-11-4 4-12 17-11 14-11 12-9 8-10 5-3 1h-16l-14-5-14-8-17-12-13-10-10 13-9 12-11 12-8 7-10 6-11 3h-9l-13-4-12-8-18-13-20-14-18-13-20-14-15-11-3-16v-26l4-18 6-15 7-12 13-18 13-18 13-18 13-18 13-18 14-19 13-18 13-18 13-18 10-14-4-4-14-10-18-13-18-13-19-14-18-13-18-13-18-13-18-13-19-14-14-10-18-13-8-5-14 19-13 18-13 18-13 18-13 18-14 19-10 14-13 18-13 18-14 19-10 11-5 6-14 11-14 7-12 3h-11l-11-2 2 1-1 2-12-8-14-11-18-14-14-11-14-11-14-11-18-14-10-8-7-9-4-10v-17l4-12 8-15 10-14 11-14v-2l-17-13-10-8-12-11-7-8-6-11-1-4v-16l5-13 8-14 14-19 11-14 2-5-16-12-12-11-8-10-4-8-1-4v-16l5-13 7-13 12-16 5-7-18-14-17-13-10-10-9-14-5-12-4-15-1-9v-11l2-15 6-18 8-13 9-11 6-9 9-10 12-9 16-8 14-4 7-1h23l17 4 11 5 10 6 18 13 13 9 3-1 10-14 11-13 10-9 8-5 11-3h9l13 4 12 6 16 11 6 5h3l11-16 13-17 11-12 7-7 10-6 10-3h8l12 3 16 8 12 8 16 12 5 4 3-1 10-14 11-14 12-12 11-7ZM189 741"/></svg>
