<svg xmlns="http://www.w3.org/2000/svg" viewBox="0 0 1080 1080" fill="currentColor"><path d="M644 56h50l28 2 23 4 15 4 16 7 11 7 15 15 9 11 12 16 12 19 12 21 6 11 29 5 22 6 21 8 16 8 18 10 17 12 13 11 8 7 15 15 9 11 11 15 9 15 8 15 8 20 6 20 4 23 1 11v426l-2 21-5 24-5 16-8 20-11 20-11 16-9 11-9 10-18 18-11 9-15 11-20 12-23 11-30 10-25 5-15 2-14 1H243l-23-2-23-4-25-7-22-9-20-10-21-14-14-11-10-9-12-11-7-8-10-12-10-14-12-21-8-18-6-18-5-22-2-14-1-13V385l3-24 5-21 8-22 10-21 14-22 10-13 12-13 6-7 8-7 14-12 21-14 5-2 1-9 7-21 8-16 9-12 11-11 14-9 15-6 20-4 15-1 37 2 15 4 12 6 11 9 9 10 11 18 2 4h101l14-28 11-19 10-15 9-11 9-10 13-11 14-8 14-6 17-4 6-1 72-1Zm-25 264-27 3-24 5-30 10-27 13-21 13-17 13-14 12-17 17-9 11-13 17-11 17-10 18-10 21-9 25-7 25-5 29-2 29 1 29 4 28 6 24 7 20 7 16 11 21 12 18 11 14 11 12 7 8 12 11 8 8 11 9 18 13 19 11 25 12 20 7 21 6 20 4 27 3h37l26-3 25-5 26-8 15-6 23-11 15-9 17-12 11-9 13-12 22-22 9-11 10-13 13-21 8-15 10-25 6-19 5-23 3-25v-40l-3-26-6-28-12-36-11-24-12-21-8-12-12-16-11-13-14-15-11-10-14-11-14-10-15-9-17-9-25-10-25-7-22-4-20-2Zm7 137h33l25 5 20 8 13 7 11 8 10 9 13 13 9 12 9 15 6 15 5 19 2 17v16l-2 17-5 20-8 20-9 16-9 12-9 10-10 10-17 12-16 8-14 5-18 4-10 1h-25l-21-3-16-5-16-7-16-10-10-9-8-7-10-12-10-15-8-16-7-19-4-19-1-8v-27l3-18 5-16 7-15 8-13 8-10 9-10 8-7 8-7 14-9 19-9 21-6Z"/></svg>
