<svg xmlns="http://www.w3.org/2000/svg" viewBox="0 0 1080 1080" fill="currentColor"><path d="m44 25 9 1 25 10 33 15 39 19 23 11 108 54 19 10 24 12 19 10 10 5-3-10-4-24-3-34V78l3-10 4-4 2-1h7l12 6 11 7 14 6 17 3h15l26-4 25-4 11-1h10l17 3 20 7 21 9 2-16 5-17 7-16 7-11 8-7 8-3h12l14 5 16 10 10 9 8 7 7 7 7 8 11 13 13 18 10 16 9 17 2 6 13-2 17-2h23l18 2 21 5 20 7 23 11 18 11 17 12 16 13 11 10 8 7 10 10 7 8 12 15 10 16 9 17 7 19 5 23 2 19 1 94 3 25 6 25 7 20 12 25 9 15 11 16 12 17 11 19 10 24 6 20 4 22 1 12v20l-3 20-6 18-8 15-9 13-9 10-10 10-17 13-21 14-20 12-30 18-18 12-14 11-7 7-7 11-3 8v10l5 10 9 8 10 5 8 1 8-4 7-10 6-17 1-4 5 1 8 4 10 9 7 12 4 14 1 7v29l-3 15-6 15-8 13-11 12-9 8-13 8-14 7-21 7-26 5-20 2h-40l-31-3-30-5-25-6-27-8-26-10-27-12-27-9-25-6-22-3-17-1h-11l-26 2-23 4-27 7-38 13-36 13-26 7-13 2h-24l-17-4-12-5-12-7-12-11-9-8-7-8-11-14-8-13-7-14-6-18-2-10-1-10v-16l3-21 5-16 6-15 10-19 12-18 11-14 12-14 14-15 9-9 8-7 12-11 11-9 17-14 10-9 8-7 10-9 16-15 8-8 7-8 12-13 9-11 12-16 11-17 12-23 5-13-22 2-35 1h-22l-26 11-36 17-33 15-24 9-15 4-6 1h-22l-13-4-11-7-7-7-8-11-16-8-12-8-11-11-6-11-3-10v-30l4-18 6-15 9-14 8-10 9-10 22-22 8-7 10-9 11-9 12-11 11-9 12-11 11-9 7-7 8-7 12-11 6-5-5-5-12-11-14-11-14-12-14-11-13-11-14-11-13-11-10-8-11-9-11-9-11-9-17-14-11-9-13-11-11-9-14-12-11-9-11-10-11-9-15-14-8-7-16-15-11-11-9-11-4-7-1-6v-8l2-9 6-11 7-7 12-6Zm420 296-11 2-8 4-10 9-6 10-2 7v16l4 11 6 8 8 7 8 4 14 2 14-3 10-6 5-4 7-11 3-11v-10l-4-13-6-8-9-8-9-4Zm11 249"/></svg>
