<svg xmlns="http://www.w3.org/2000/svg" viewBox="0 0 1080 1080" fill="currentColor"><path d="M467 87h21l10 3 11 6 12 11 8 10 10 17 7 18 7 24 3 16 1 10v16l-3 17-6 14-7 9-8 8-13 8-15 6-17 4-13 2-15 1h-32l-25-1-17 1-12 3-9 7-4 7-1 9 3 10 6 10 9 7 16 7 23 6 32 5 6 3 2 2v8l-15 29-13 28-12 26-2 5-27 12-21 11-14 9-14 10-12 9-13 13-13 17-10 14-11 19-9 19-4 13-1 5v14l4 9 8 5 7 2h17l8-4 6-7 11-23 11-18 14-19 14-14 7-4h9l4 5 1 8-10 30-8 30-8 40-5 35-4 37-2 24-1 4h-32l-21-4-18-6-17-8-18-11-17-13-11-10-8-7-9-9-7-8-12-14-15-20-18-27-12-20-13-23-16-31-10-19-17-34-6-16-1-11 3-4 3-1 16 1 16 2 20 1 19-2 19-5 18-8 14-9 10-8 10-9 11-11 11-14 12-17 6-10 2-6v-10l-3-9-7-8-6-1-8 4-13 11-15 14-11 12-7 7-13 9-16 8-15 5-19 4-9 1H94l-19-3-17-5-19-10-12-11-7-8-7-14-4-15-2-13-1-17 1-15 4-16 8-16 11-12 10-7 16-8 14-4 10-2 38-4 32-5 34-7 31-8 37-12 28-11 26-12 26-13 24-14 19-12 16-11 9-7 8-8 14-11 10-7 14-8 16-6Zm137 205h11l13 3 16 8 11 7 17 12 19 12 25 15 21 12 24 13 33 17 27 13 31 14 38 16 31 12 36 13 34 11 22 7 16 6 19 10 11 9 8 10 4 10 1 5v12l-3 14-6 16-12 24-14 24-13 23-9 16-5 3-5-1-14-14-11-9-15-11-16-9-18-8-23-6-14-2h-36l-26 4-10 3-11 7-7 9-5 11-1 5v11l4 13 7 11 7 6 9 4 9 2 35 1 16 1 18 4 11 5 10 6 12 11 9 11 10 16 3 6-1 7-10 23-8 16-12 23-15 24-13 18-11 14-13 15-26 26-11 9-17 13-17 11-16 9-25 12-25 9-24 6-25 4-11 1h-35l-25-3-22-5-19-6-15-6-17-8-18-11-16-12-14-12-12-12-9-11-9-12-12-19-12-25-8-22-6-24-4-25-1-11v-47l4-33 5-25 7-27 11-33 12-30 18-49 6-16 9-7 10-5 16-4h14l13 4 13 9 8 8 9 12 12 19 13 21 9 11 11 8 8 3h17l12-4 9-7 7-8 4-9 1-5v-14l-4-16-7-16-11-18-10-13-11-13-13-14-8-7-14-12-18-12-12-5-13-4-17-4-11-2-3-4-1-6 11-27 10-21 11-18 11-13 9-8 14-7Zm-45 379-10 5-6 8-2 5v13l6 24 7 21 9 20 9 15 9 12 12 13 13 10 14 8 16 7 21 5 7 1h31l25-4 20-5 24-8 16-7 6-7 3-7v-12l-5-10-7-6-17-4-54-8-22-5-18-6-16-8-11-8-10-9-5-6-8-7-14-15-14-15-9-6-6-3-6-1Z"/></svg>
