<svg xmlns="http://www.w3.org/2000/svg" viewBox="0 0 1080 1080" fill="currentColor"><path d="M357 9h20l19 2 18 4 17 6 15 8 11 8 10 9 10 10 12 17 9 16 10 23 8 26 6 28 9 63 8 47 11 53 10 42 8 31 16-8 16-8 18-8 27-9 29-6 23-2h16l21 2 20 4 24 8 23 11 16 10 13 10 14 12 13 13 9 11 13 17 11 18 12 23 10 25 7 23 5 26 2 20v24l-3 24-6 21-7 16-8 13-8 10-9 9-5 4-15 3-13-1-11-4-9-7-7-7-8-10-11-12-11-10-17-13-15-10-19-10-19-6-12-2-11-1h-12l-15 1 8 12 10 13 9 11 11 12 7 8 12 12 8 7 10 9 14 11 18 14 19 13 20 13 22 13 27 15 31 16 28 13 31 14 43 18 21 9 15 9 10 8 10 10 7 11 5 11 3 15v15l-3 19-5 14-8 11-10 7-11 4-6 1h-15l-17-3-21-7-5-2-2 4-9 9-14 11-15 10-23 11-25 9-30 7-27 4-37 3-47 1-37-2-38-4-39-6-38-8-35-9-35-11-33-12-35-15-29-14-23-13-22-13-19-13-14-10-18-14-14-12-10-9-15-14-7-7-7-8-5-6-2-1-1 9-4 19v11l3 16 7 26 2 14v23l-3 15-5 13-8 12-13 13-11 7-14 7-18 6-14 3h-13l-9-3-9-7-6-10-6-24-6-14-9-13-11-11-8-7-11-10-11-9-8-8-8-7-17-17-9-11-9-12-9-16-7-16-4-13-4-23-1-10v-33l4-24 5-17 8-18 8-15 12-17 12-14 17-17 14-11 15-11 11-7-1-7-8-24-7-29-6-36-4-40-1-19v-50l2-33 4-37 6-37 6-29 9-34 12-36 11-28 15-31 14-24 13-19 10-13 13-15 17-17 14-11 11-8 15-9 16-8 15-6 23-6 19-3Zm0 128-16 6-14 8-12 9-10 9-11 11-12 16-13 21-14 29-10 28-7 24-7 30-5 31-3 27-2 37v24l2 36 3 26 6 31 7 24 2 6 27-2h21l26 2 26 4 33 7 49 13 3-4 9-17 13-29 12-25 6-9-2-10-11-35-11-40-13-52-9-41-10-53-7-44-6-41-4-17-6-15-7-11-8-8-10-5Z"/></svg>
