<svg xmlns="http://www.w3.org/2000/svg" viewBox="0 0 1080 1080" fill="currentColor"><path d="M930 8h24l19 3 21 7 15 8 12 9 11 11 8 12 5 13 1 5v16l-3 11-6 12-8 9-11 8-14 7-7 3-10 14-13 19-11 16-16 23-15 22-10 14-5 4-24 9-29 14-15 8-13 16-8 10-13 16-8 10-13 16-11 14-14 17-8 10-13 16-8 10-6 10-2 6v12l4 6 8 5 13 3 40 1 18 4 16 7 14 9 11 9 10 10 12 16 10 18 7 18 5 21 1 9v21l-2 14-5 17-8 16-9 13-11 12-14 11-21 11-18 6-20 5-16 6-11 7-9 8-6 9-4 11-1 5v13l3 18 1 10v33l-3 24-5 22-6 19-8 20-11 22-12 19-10 13-11 13-22 22-17 13-15 10-23 12-26 11-30 10-25 6-26 4-23 2h-41l-32-3-29-5-26-6-29-9-27-10-24-11-16-8-17-9-21-13-19-13-12-9-14-11-15-13-13-12-15-15-7-8-13-15-12-16-11-16-11-18-12-22-12-28-9-28-5-21-4-28-1-13v-29l3-29 5-24 7-24 8-21 14-29 11-18 9-12 11-13 19-19 13-10 18-12 22-12 19-9 42-18 25-12 15-9 12-9 13-12 10-13 9-16 6-14 6-20 5-27 5-16 8-17 10-14 14-14 15-10 16-7 15-4 7-1h20l16 3 15 6 11 7 9 8 9 12 6 12 4 12 2 13 2 46 3 22 4 13 5 7 4 2h7l10-5 12-10 7-8 13-16 13-16 13-16 13-16 13-16 13-16 13-16 13-16 13-16 11-14-2-10-8-29 1-9 5-6 17-9 5-2-1-5v-17l4-10 9-10 10-5 7-2h13l11 4 8 6 3 2V86l4-11 6-8 10-7 10-3h14l11 4 8 6 5 6 10-4 4-2 5-17 6-11 11-12 11-8 11-5 13-4ZM447 507l-15 4-12 6-9 8-9 14-4 11-2 13 1 16 5 15 7 11 9 9 19 12 17 13 18 13 17 12 20 12 16 7 11 3h12l15-4 11-6 9-8 9-14 5-16v-22l-4-14-6-11-8-9-10-7-11-7-19-14-19-14-20-14-18-10-14-6-12-3ZM324 669l-12 3-12 6-9 7-8 11-6 12-2 8-1 13 2 13 4 11 6 11 8 9 18 13 19 13 16 11 23 16 21 14 11 5 9 2h17l14-4 11-6 8-7 9-13 5-12 2-17-2-14-5-13-7-11-10-10-19-13-23-16-16-11-16-11-19-13-11-5-9-2Z"/></svg>
