<svg xmlns="http://www.w3.org/2000/svg" viewBox="0 0 1080 1080" fill="currentColor"><path d="M65 280h20l26 2 32 5 30 7 27 8 25 9 25 11 25 12 22 12 23 14 15 10 14 10 19 14 17 14 13 11 13 12 5 4 2-5 13-15 10-9 14-10 17-10 18-7 22-5 16-2h15l22 3 19 5 17 7 17 10 13 10 12 11 10 12 6 9 7-6 8-8 8-7 14-12 14-11 20-15 20-14 19-12 21-12 26-14 26-12 31-12 29-9 29-7 30-5 18-2 15-1h20l16 4 12 6 11 9 8 10 7 14 3 13 1 55 2 303v71l-4 16-6 12-9 11-10 8-14 7-12 3h-34l-24-2-35-5-36-8-27-8-25-9-30-13-26-13-24-14-19-12-18-13-13-10-11-9-14-12-15-14-4-3-7 11-10 13-11 12-14 11-16 10-16 8-21 6-16 3-10 1h-15l-22-3-19-5-19-8-16-10-13-10-12-11-13-17-4-6-7 6-12 11-11 9-16 13-18 13-20 13-15 9-18 10-28 14-24 10-25 9-23 7-30 7-28 5-26 3-14 1H60l-12-3-14-7-11-9-9-12-6-13-2-8-1-9v-30l2-303 1-91 4-16 7-13 8-10 12-9 10-5Z"/></svg>
