<svg xmlns="http://www.w3.org/2000/svg" viewBox="0 0 1080 1080" fill="currentColor"><path d="M525 22h43l36 3 32 5 31 7 30 9 21 8 23 10 22 11 22 13 15 10 19 14 13 11 10 9 12 11 16 17 9 11 14 18 10 15 12 20 12 23 10 22 9 24 9 31 6 27 4 24 3 28 1 16v58l-1 36-4 30-6 29-9 33-14 41-12 30-11 25-14 29-12 24-13 23-12 21-15 24-16 24-12 17-14 19-13 16-8 10-11 13-11 12-7 8-32 32-8 7-14 12-17 13-17 12-20 12-23 12-20 8-19 6-19 4-20 2h-17l-18-2-21-5-21-8-17-8-18-10-19-12-17-12-12-9-17-14-10-9-8-7-17-16-9-9-7-8-15-16-9-11-11-13-12-16-15-20-22-33-12-19-14-24-14-26-15-30-15-34-13-34-12-36-8-28-7-30-6-35-3-27-1-14v-45l2-31 4-32 7-36 8-29 8-24 10-24 12-25 12-21 16-24 9-12 9-11 12-14 28-28 11-9 16-13 16-11 17-11 25-14 27-13 23-9 30-10 32-8 27-5 23-3ZM305 398l-18 2-21 5-21 8-15 9-12 11-8 10-7 14-4 14-2 18 2 22 6 21 9 19 8 12 8 10 14 14 14 11 17 12 15 9 17 9 23 10 28 10 26 7 33 7 20 3h27l13-4 8-6 6-9 3-10 1-15-2-18-5-23-9-32-7-20-9-20-10-19-8-12-12-16-11-12-5-5-9-9-13-10-20-12-17-7-17-5-12-2-11-1Zm461 0-21 3-20 6-15 6-21 11-14 10-12 11-10 10-12 16-11 18-8 16-10 23-10 28-8 28-4 19-2 17v9l2 13 4 9 6 7 9 4 9 2 11 1h12l21-2 22-4 28-7 30-10 26-11 23-11 22-13 11-8 11-9 8-8 5-5 8-8 11-15 6-10 8-19 4-17 1-8v-12l-2-14-5-16-6-12-9-12-12-12-15-10-16-7-13-4-10-2-10-1ZM472 766l-12 5-11 8-5 6-6 12-2 9v9l3 12 6 12 12 13 8 7 16 10 17 7 18 5 14 2h25l17-3 16-5 16-8 14-10 10-9 7-8 6-8 4-11v-17l-3-10-6-11-9-9-12-6-10-2-14 1-13 5-15 12-9 5-9 2-12-1-12-5-19-12-10-5-6-2Z"/></svg>
