<svg xmlns="http://www.w3.org/2000/svg" viewBox="0 0 1080 1080" fill="currentColor"><path d="M523 10h32l32 2 33 4 36 7 32 8 37 12 29 12 25 12 21 11 23 14 18 12 18 13 14 11 13 11 11 9 15 15 5 5 16 16 9 11 8 9 13 17 14 19 11 17 15 25 14 26 11 24 12 31 9 28 10 40 6 34 4 35 1 16v51l-3 35-5 34-8 37-8 28-9 27-11 27-14 29-13 24-15 24-11 16-14 19-13 16-13 15-14 15-18 18-8 7-15 13-17 13-16 12-26 17-22 13-27 14-21 10-34 13-25 8-31 8-36 7-30 4-25 2h-58l-34-3-38-6-31-7-29-8-29-10-26-11-25-12-19-10-20-12-27-18-19-14-17-14-14-12-16-15-14-14-7-8-9-10-9-11-14-18-12-17-10-15-15-25-13-24-14-30-11-29-9-28-9-36-6-32-4-32-2-29v-41l2-30 4-31 5-28 8-33 9-30 12-32 12-26 11-22 14-24 15-23 12-17 14-18 11-13 9-10 7-8 27-27 8-7 13-11 17-13 16-12 26-17 24-14 27-14 27-12 27-10 29-9 32-8 33-6 32-4Zm121 123-109 13-7 1-20 55-18 50-19 52 6 7 8 8 7 8 10 10 7 8 9 9 7 8 10 10 7 8 10 10 7 8 9 9 7 8 6 6 24-3 178-25 10-19 16-32-7-11-12-17-16-23-11-16-14-20-11-16-14-20-11-16-14-20-16-23-11-16-4-5-19-6Zm-231 5-23 8-24 10-29 14-22 13-21 14-13 10-11 9-14 12-9 9-8 7-14 15-9 10-11 14-13 17-9 14v2l19 13 16 12 4 3 5-1 28-13 27-13 28-13 29-14 26-12 9-24 22-61 19-52v-3ZM136 416l-3 8-8 32-5 30-3 36v38l2 28 4 28 6 28 7 24 2 6 5-5 9-10 9-11 11-13 9-11 1-1-1-13-23-179-17-12Zm648 86-185 26-7 2-13 23-10 19-13 23-16 30-13 23-10 19 1 6 11 22 10 19 17 33 12 23 15 29 14 27 10 19 101-6 10-1 5-8 15-28 14-26 13-24 14-26 12-22 15-28 12-22 15-28 12-22 5-10-8-11-20-30-25-37-10-14ZM267 690l-11 13-9 11-11 13-9 11-11 13-9 11-11 13-4 5 2 5 9 12 11 14 10 11 7 8 25 25 11 9 9 8 13 10 19 13 18 11 18 10 27 13 31 12 25 8 30 7 19 3 15-23 13-20 9-14-1-5-15-29-14-27-14-27-14-27-14-27-14-27-8-14-6-2-143-27Z"/></svg>
