<svg xmlns="http://www.w3.org/2000/svg" viewBox="0 0 1080 1080" fill="currentColor"><path d="M654 25h19l13 4 10 6 8 7 7 11 4 10 26 98 13 49-1 9-4 6-4 3-3 1h-9l-11-6-17-10-21-10-26-10-23-7-25-6-26-4-24-2-34-1-5-3-4-4-2-6 1-9 4-6 8-7L629 37l11-7 10-4ZM288 72h18l13 4 25 14 24 14 26 15 27 16 28 16 9 6 3 5 1 9-3 7-5 5-15 4-27 8-25 10-27 13-22 13-19 13-14 11-14 12-8 8-5 5-8 8-4 2h-12l-7-5-3-7V161l1-46 4-13 6-10 6-7 10-7 12-5Zm232 171h42l26 3 29 6 26 8 22 9 16 8 15 8 21 14 13 10 13 11 25 25 9 11 13 18 9 14 10 18 10 21 9 25 6 21 5 26 3 29v31l-3 30-6 29-8 27-9 22-9 19-13 22-10 14-10 13-10 11-7 8-12 12-11 9-12 10-24 16-16 9-16 8-19 8-24 8-26 6-29 4-15 1h-22l-26-2-30-5-29-8-21-8-24-11-21-12-16-11-14-11-15-13-18-18-9-11-11-14-12-18-12-21-9-19-9-24-6-20-6-29-3-28v-37l3-27 5-25 7-25 8-21 10-22 12-21 11-16 9-12 12-14 14-15 12-11 14-11 15-11 21-13 17-9 21-9 30-10 26-6 22-3Zm282 7h137l28 1 12 4 10 6 10 10 8 16 2 9v14l-3 12-9 17-14 24-15 26-14 24-14 24-14 24-7 6-9 1-8-3-4-5-4-13-7-25-10-26-12-25-9-17-13-20-10-14-13-16-12-13-16-16-2-5v-7l4-8 5-4Zm-598 77h8l8 5 3 5 1 7-3 9-9 15-12 23-8 19-7 19-8 29-5 24-3 22-1 12-1 39-4 6-7 4h-10l-6-4L31 452l-7-11-4-10-1-4v-20l4-12 7-12 7-7 10-6 13-5 87-23Zm717 194 9 1 8 7 98 98 7 8 7 9 5 13 1 5v16l-4 13-4 8-9 10-9 7-12 5-91 24-57 15-9-1-7-6-2-4v-11l11-19 12-23 11-27 9-29 6-26 4-26 2-33v-21l4-8 6-4Zm-762 98h7l6 3 5 6 4 15 8 26 10 25 12 25 13 22 11 16 9 12 9 11 9 10 9 10 11 10 3 7-1 10-7 8-3 1H112l-12-3-12-6-10-9-6-9-5-12-1-4v-18l4-13 9-17 13-22 15-26 14-24 15-26 13-22 5-4Zm651 177h9l7 4 4 6v163l-3 12-6 12-9 10-11 7-11 4-5 1h-15l-14-4-25-14-17-10-24-14-26-15-24-14-22-13-4-6-1-10 4-8 6-4 27-7 26-9 20-9 20-10 20-12 19-13 14-11 14-12 22-22Zm-476 61h7l10 5 13 8 15 8 28 12 27 9 28 7 30 5 24 2h28l9 3 5 6 1 2v11l-4 6-102 102-8 7-10 7-11 4-5 1h-16l-14-4-11-7-5-4-8-11-5-12-22-83-17-64v-8l4-7 6-4Z"/></svg>
