<svg xmlns="http://www.w3.org/2000/svg" viewBox="0 0 1080 1080" fill="currentColor"><path d="M239 11h10l16 3 16 8 11 9 3 4 4 1h58l99-2h58l34 1 37 3 17 3 10 3 8 5 9 12 4 8 2 8v17l-3 12-7 13-6 7-11 8-11 4-6 1H316l7 33 7 25 9 25 13 28 14 24 11 16 13 17 1 3h144l14 3 10 5 10 9 6 7 5 10 2 9v14l-4 15-7 12-5 6-11 8-10 4-5 1-36 1 10 9 11 9 13 11 13 10 8-6 14-12 14-11 15-13 10-8 13-11 11-9 12-11 10-9 23-23 7-8 11-13 10-13 12-17 8-13H477l-12-3-10-6-9-8-8-13-4-13v-20l4-12 7-10 6-7 12-5 14-3 29-3 16-1 39-1h45l98 2h67l1-9 5-33 2-27 1-24 4-16 6-12 8-10 7-7 14-9 12-4 5-1h22l15 4 12 6 13 10 9 11 6 12 3 10 1 8v30l-2 34-5 37-6 29-9 32-10 28-10 23-11 23-13 23-12 19-11 16-12 16-11 14-11 13-12 14-8 8-7 8-24 24-8 7-14 13-11 9-10 9-14 11-16 13-9 7h-2l5 5 15 13 11 9 14 12 14 12 13 12 8 7 33 33 7 8 11 13 13 17 12 17 13 20 9 15 10 18 11 23 13 33 12 37 8 30 6 29 4 29 1 13v27l-3 22-5 17-8 15-8 9-10 7-11 5-11 3-7 1h-13l-15-3-16-8-5-4-15-1h-21l-92 2h-95l-36-2-24-3-15-4-8-5-10-12-5-11-1-4v-20l4-13 7-12 9-9 10-6 10-3h253l-6-33-6-24-10-30-11-25-10-19-13-21-10-14-4-5-17-1-33 1h-59l-19-2-16-4-9-5-10-10-6-10-3-10v-19l4-13 6-11 6-7 10-7 12-5 7-1 19-1-14-12-11-9-6-5-4 2-14 12-11 9-13 11-11 9-13 11-11 9-14 12-13 12-23 23-7 8-11 13-10 13-12 17-2 3 242 1 12 4 10 7 7 7 7 12 4 14v17l-4 13-7 10-6 7-8 4-16 4-23 3-39 2h-88l-93-2h-43l-5 26-4 30-1 12-1 26-2 17-5 13-7 11-9 10-11 8-13 6-13 3h-18l-13-3-16-8-12-10-9-12-6-13-3-12v-35l3-36 5-34 6-29 8-29 8-24 13-32 14-29 16-27 11-17 12-17 13-17 11-13 11-12 7-8 27-27 8-7 13-12 11-9 10-9 11-9 13-11 11-9 10-8-1-3-11-9-17-14-13-11-14-11-10-9-11-9-10-9-8-7-15-14-20-20-7-8-11-12-9-11-11-14-13-18-12-18-9-15-12-22-13-27-11-28-9-27-8-31-6-31-4-30-2-24-1-22V71l4-16 7-13 9-11 10-8 16-8 11-3Z"/></svg>
