<svg xmlns="http://www.w3.org/2000/svg" viewBox="0 0 1080 1080" fill="currentColor"><path d="M644 74h41l25 3 26 6 27 9 29 14 15 9 14 10 13 11 12 11 12 13 12 16 11 18 8 15 9 23 7 25 5 25 2 16 1 23-1 22-4 26-6 23-7 19-9 20-9 16-11 8-16 8-20 6-12 2-11 1h-20l-21-2-22-4-26-7-29-10-23-10-27-13-23-13-20-12-19-13-14-10-18-14-14-12-10-9-13-12-15-16-11-14-9-13-12-19-7-15-5-17-1-8v-10l3-15 7-16 10-15 11-13 9-10 12-13 8-7 15-12 15-10 18-10 23-10 23-7 24-5ZM269 92h54l31 3 24 4 8 4 6 5 3 5 1 4v8l-4 11-7 11-8 11-6 15-5 19-2 15v19l3 22 5 19 6 17 12 25 11 18 12 17 11 14 12 14 14 15 14 14 8 7 10 9 14 11 15 12 17 12 18 12 21 13 23 13 21 11 31 14 31 12 31 10 32 8 36 6 27 2h18l25-2 25-5 24-8 21-11 12-9 10-9 9-9 7-10 6-17 6-8 5-4 2-1h8l9 4 10 8 9 11 9 12 12 19 10 18 8 16 9 20 9 27 5 21 3 22v34l-4 24-8 24-11 21-12 16-11 12-11 10-15 11-21 12-21 9-22 7-21 5-27 4-11 1-23 1-36-1-28-3-1 16 12 11 8 9 8 14 5 14 2 10v26l-4 18-7 16-8 12-9 10-9 8-13 8-13 5-15 3h-24l-16-3-15-6-11-7-12-11-7-8-9-15-5-13-3-12-1-7v-20l3-16 5-13 6-11 8-10 10-10 14-9 3-26-10-2-30-8-46-15-34-13-35-15-38-18-23-12-4 4-13 18-7 10 2 9 4 18v21l-4 17-8 17-10 13-11 11-15 10-16 7-18 4h-19l-15-3-15-6-16-10-12-11-10-14-7-15-4-17v-25l3-15 6-15 6-11 8-10 4-5 14-11 16-8 15-4 18-2 10-13 10-14-11-8-17-11-20-14-18-13-13-10-14-11-11-9-13-11-14-12-16-15-17-16-7-7-7-8-7-7-4 2-10 8-3 2-2 24-5 16-7 13-8 10-9 9-14 9-16 7-13 3H84l-16-4-14-7-13-10-8-8-9-13-6-12-4-17v-23l4-16 5-12 7-12 11-12 9-8 14-8 10-4 15-3h16l14 2 14-11 3-3h2l-7-11-14-21-11-19-11-21-8-19-10-30-5-23-2-15v-38l4-23 7-21 8-16 7-12 11-14 9-10 8-7 14-11 18-11 16-8 20-8 24-7 26-5Z"/></svg>
