<svg xmlns="http://www.w3.org/2000/svg" viewBox="0 0 1080 1080" fill="currentColor"><path d="M280 8h20l23 2 20 4 20 6 23 10 21 11 15 10 11 8 11 9 10 9 15 15 9 11 10 13 14 21 12 21 12 25 10 26 9 29v3h2l2-10 11-33 11-26 10-20 12-20 11-16 11-14 12-14 18-18 14-11 15-11 15-9 23-12 20-8 21-6 16-3 23-2h20l22 2 23 5 21 7 18 8 16 8 15 10 14 11 12 11 14 14 11 15 10 18 8 17 8 24 4 21 1 11v25l-2 18-5 20-7 20-8 16-8 14-12 16-12 13-17 17-11 9-17 13-15 10-6 4 72 1 20 4 16 6 15 8 13 10 10 9 11 14 8 13 7 16 5 19 1 7v104l-4 19-6 16-9 17-8 10-9 10-10 9-15 10-18 8-13 4-11 1v239l-2 17-4 17-7 19-8 15-10 14-12 14-10 9-14 10-16 9-15 6-17 5-12 2-11 1H255l-22-3-21-6-23-11-17-12-13-12-10-11-9-13-9-16-7-18-5-22-1-9V700l-11-1-21-7-15-8-14-10-16-16-9-13-9-17-6-19-2-10-1-10v-90l3-21 6-18 8-16 9-13 12-13 12-10 13-8 15-7 17-5 12-2 82-1-18-12-19-14-10-9-8-7-19-19-11-14-10-15-8-16-6-14-6-19-4-20-1-11v-25l2-18 5-21 7-19 11-23 10-16 11-13 18-18 14-11 14-10 16-9 23-10 21-7 23-5Zm5 127-20 4-12 5-11 6-12 9-7 7-7 11-4 11-2 11 1 13 4 13 9 14 11 12 7 7 14 10 15 9 23 12 25 11 30 11 33 10 40 10 12 2-2-16-6-30-6-23-9-25-9-20-8-15-8-12-8-10-11-12-13-11-13-9-16-8-16-5-10-2Zm508 0-21 5-16 7-11 7-14 11-13 12-10 12-10 15-12 23-11 28-8 27-7 35-2 16 12-2 44-11 38-12 28-11 24-11 21-11 14-9 13-10 13-13 7-10 6-11 3-10 1-13-4-18-6-11-11-12-14-10-17-8-16-4-7-1Z"/></svg>
