<svg xmlns="http://www.w3.org/2000/svg" viewBox="0 0 1080 1080" fill="currentColor"><path d="M934 16h31l23 2 22 4 17 5 16 8 10 9 6 9 6 14 5 19 3 21 1 14v38l-3 35-6 38-8 36-8 30-13 40-13 34-13 30-16 34-14 27-12 21-16 27-16 25-13 19-12 17-14 19-11 14-13 16-8 10-12 14-12 14-12 13-9 10-7 7-7 8-33 33-8 7-17 16-11 9 5 33 3 27 2 35v34l-2 30-4 29-6 27-9 27-12 25-12 18-10 12-13 9-14 5-15 1-16-3-14-7-12-11-10-13-13-16-10-13-13-16-10-13-12-15-11-14-12-15-11-14-8-10v-2l-26 9-21 7-18 5-4 4-19 32-9 15-19 32-7 9-9 8-11 5-7 2h-19l-17-5-20-8-23-12-21-13-17-12-17-13-11-9-14-12-15-14-30-30-7-8-12-14-12-15-14-19-13-20-11-19-8-15-8-19-6-19-1-6v-11l3-13 6-11 5-6 11-8 29-17 29-17 22-13h2l4-17 12-37 4-10-1-4-17-14-13-10-15-12-14-11-14-11-16-13-13-10-16-13-13-10-11-9-8-9-6-12-3-11v-19l4-14 6-10 9-10 15-11 15-9 19-9 19-7 28-7 23-4 30-3h64l36 3 34 5 9 1 9-10 7-8 12-13 16-17 24-24 8-7 10-10 8-7 13-12 11-9 10-9 11-9 11-9 14-11 21-16 18-13 33-22 15-10 32-19 25-14 35-18 35-16 35-14 34-12 34-10 28-7 36-7 31-4ZM710 263l-16 3-16 6-16 9-13 11-10 11-9 14-7 15-4 14-2 15v14l3 19 6 17 7 13 9 12 6 7 11 9 10 7 17 8 19 5 7 1h20l17-3 17-6 16-9 11-9 11-11 10-15 7-15 4-13 2-11 1-14-2-19-4-15-7-16-8-12-12-14-14-11-12-7-15-6-12-3-7-1Z"/></svg>
