<svg xmlns="http://www.w3.org/2000/svg" viewBox="0 0 1080 1080" fill="currentColor"><path d="m717 10 14 1 15 4 14 7 9 7 14 13 11 9 14 12 11 9 17 16 12 14 8 13 5 11 2 8 1 19-2 14-5 14-9 15-10 13-10 11-7 8-9 10 2 10 3 13 2 16v21l-3 20-6 21-8 16-7 11 2 4 7 11 5 10 5 16 2 11v27l-2 12 12 14 13 18 12 20 8 15 10 23 10 30 7 30 4 29 1 14v36l-2 24-5 30-6 24-9 27-11 25-11 21-13 20-12 16-11 13-14 15 114 1 9 2 10 5 7 6 7 10 3 8 1 6v31l1 25v23l-2 19-4 13-6 8-11 8-11 4H176l-10-3-9-6-7-9-5-12-2-9-1-9v-39l1-47 4-11 6-9 8-7 10-5 9-2 146-1-9-9-7-8-13-16-12-17-13-21-11-21-5-1h-62l-18-3-12-5-9-6-9-10-6-10-4-10-2-12v-10l2-12 5-13 8-11 7-7 11-7 13-5 6-1h270l15 4 13 7 11 11 7 12 4 13 1 7v14l-3 14-8 16-9 10-12 8-16 5-8 1-43 1 14 14 14 11 15 11 21 12 21 9 19 6 20 4 8 1h38l20-3 19-5 17-6 16-7 19-11 17-12 13-11 10-9 7-8 11-13 14-21 12-23 9-25 5-21 2-15v-37l-3-20-5-19-7-19-9-19-11-18-12-16-4-5-19-1-18-4-16-7-7-4-5 2-12 7-21 8-25 5-21 1-27-2-9 10-8 10-12 14-9 10-7 8-22 22-13 10-16 8-7 2h-14l-13-4-15-9-11-9-13-11-13-12-10-9-13-12-10-9-10-9-11-9-14-13-7-11-3-8-1-13 2-12 6-15 10-16 13-16 9-10 9-10 9-9 7-8 7-7 9-11 1-3-5-21-2-18v-14l2-18 4-17 8-20 6-11 10-14 12-13 13-14 9-11 12-14 9-11 11-13 12-14 12-13 22-22 11-9 15-11 16-9 16-7 19-5 7-1h25l8 1 10-11 9-11 14-15 7-8 7-7 11-7 11-5 15-4Z"/></svg>
