<svg xmlns="http://www.w3.org/2000/svg" viewBox="0 0 1080 1080" fill="currentColor"><path d="M638 9h49l31 3 29 5 26 6 26 8 28 11 25 12 18 10 19 12 20 14 14 11 13 11 13 12 14 14 7 8 11 13 15 20 16 24 12 21 10 19 11 26 11 33 7 28 5 28 3 24 1 14v40l-2 25-5 33-6 27-8 27-8 22-9 20-8 16-11 20-12 19-10 14-10 13-9 11-9 10-9 10-12 12-8 7-14 12-20 15-24 16-21 12-19 10-16 7-24 9-26 8-25 6-30 5-30 3h-44l-32-3-30-5-29-7-23-7-5-2-5 1-55 55-7 8-59 59-7 8-59 59-7 8-35 35-14 11-14 9-21 10-19 6-15 3-8 1h-34l-19-3-20-6-16-7-16-9-16-12-13-12-9-10-12-17-9-17-7-18-5-21-2-15v-27l3-21 6-21 8-18 9-16 10-13 9-10 17-17 7-8 60-60 7-8 59-59 7-8 59-59 4-5-1-6-9-25-8-28-6-28-4-25-2-20v-53l3-30 5-29 7-29 7-22 7-19 9-20 11-22 15-25 11-16 12-16 9-11 12-14 25-25 11-9 12-10 18-13 21-14 21-12 16-8 17-8 24-9 26-8 31-7 24-4Zm2 131-25 3-26 6-24 8-27 12-20 11-12 8-12 9-11 9-15 14-8 8-7 8-10 12-13 18-12 21-10 21-9 24-7 26-4 23-2 26v17l2 28 4 24 6 23 9 24 11 24 11 19 9 13 10 13 10 11 7 8 9 9 8 7 13 11 17 12 15 9 15 8 24 10 24 8 21 5 18 3 11 1h46l26-3 26-6 24-8 23-10 23-12 15-10 13-10 13-11 25-25 9-11 11-15 13-21 13-27 9-25 6-21 4-21 2-18v-44l-3-26-5-23-6-20-11-27-10-20-13-21-10-13-11-13-13-13-5-5-9-9-14-11-15-11-19-11-16-8-19-8-27-9-29-6-17-2Z"/></svg>
