<svg xmlns="http://www.w3.org/2000/svg" viewBox="0 0 1080 1080" fill="currentColor"><path d="m538 4 14 1 12 5 9 7 13 15 8 10 11 13 11 14 13 15 11 14 13 15 11 14 13 15 11 14 13 15 11 14 13 15 11 14 13 15 11 14 7 9 4 10 1 5v15l-3 10-6 11-9 11-13 13-3 3 11 13 9 11 11 13 8 10 11 13 11 14 13 15 11 14 13 15 11 14 13 15 11 14 6 8 5 12 1 5v11l-3 12-8 14-8 10-9 10-4 4 2 5 12 14 9 11 9 11 11 13 11 14 13 15 11 14 13 15 11 14 6 9 4 12v15l-4 13-10 16-9 11-11 12-13 12-16 12-17 11-22 12-19 9-28 11-34 11-40 10-41 8-35 5h-7v78l-2 16-6 20-8 16-9 13-11 12-10 9-18 11-14 6-15 4-13 2h-22l-18-3-18-6-15-8-11-8-10-9-7-7-10-14-8-16-5-14-3-14-1-9v-79l-15-1-44-7-37-8-30-8-37-12-24-10-25-12-19-11-16-11-14-11-13-12-12-13-12-17-6-11-2-8v-16l3-10 6-10 11-13 11-14 13-15 8-10 11-13 11-14 13-15 11-14 13-15 2-5-7-7-11-14-8-13-4-11v-18l5-14 8-10 11-13 11-14 13-15 11-14 13-15 11-14 13-15 11-14 13-15 11-14 13-15-2-4-10-9-9-10-7-11-5-12-1-6v-10l3-12 6-10 11-13 9-11 9-11 11-13 11-14 13-15 11-14 13-15 11-14 13-15 11-14 13-15 8-10 11-13 11-14 13-15 9-11 8-8 12-6Z"/></svg>
