<svg xmlns="http://www.w3.org/2000/svg" viewBox="0 0 1080 1080" fill="currentColor"><path d="M427 26h222l23 3 22 5 24 8 19 9 19 12 16 12 10 9 8 7 9 10 12 16 12 19 8 16 6 14 7 24 4 21 2 19v204h30l15 3 13 5 12 7 13 11 10 13 8 15 4 13 2 16v332l-2 24-5 25-6 20-9 21-10 19-14 20-12 14-7 8-8 7-10 9-18 13-21 12-23 10-19 6-23 5-17 2H323l-23-3-24-6-22-8-19-9-18-11-12-9-13-11-10-9-7-8-11-13-14-21-12-23-8-21-5-17-4-21-2-22V515l2-14 4-13 7-14 11-14 10-9 13-8 12-5 11-3 7-1h30V224l4-27 6-23 7-19 8-16 10-17 12-16 11-13 13-13 14-11 10-7 13-8 21-11 19-7 24-6 19-3Zm-1 128-12 3-16 7-11 7-16 16-7 11-7 16-3 11-1 9v181h369V228l-4-16-8-17-9-12-10-10-10-7-14-7-13-4-5-1Zm106 413-18 4-16 7-14 10-10 10-7 10-8 16-4 14-1 6v23l4 18 8 17 9 12 8 8-2 29-10 119v12l4 13 6 8 9 8 10 4 4 1h49l28-1 12-4 9-7 7-9 4-12v-16l-13-135v-8l11-11 7-10 8-16 4-14 1-7v-21l-4-18-7-16-8-11-9-10-10-8-12-7-17-6-12-2Z"/></svg>
