<svg xmlns="http://www.w3.org/2000/svg" viewBox="0 0 1080 1080" fill="currentColor"><path d="M191 65h23l21 5 18 8 25 11 41 17 26 11 12 6 10 7 10 9 8 11 5 12 2 11v12l-3 17-4 12 5 1 30 13 44 19 37 16 44 19 37 16 44 19 37 16 44 19 37 16 44 19 25 11 11 6 9 7 7 6 8 11 5 10 3 9 1 6v22l-5 19-3 8 10 3 40 17 46 19 20 8 11-9 14-7 11-3h22l16 5 12 7 9 8 9 13 5 11 2 16-2 16-5 19-8 21-12 27-17 37-7 19-7 12-9 10-11 7-12 5-11 2h-13l-15-3-12-5-10-7-6-5-8-11-5-11-3-12-1-13-40-17-41-17-33-14-2 3-7 16-8 12-9 10-10 7-13 5-5 1h-24l-25-6-28-11-26-12-4 1-9 11-9 10-2 1 2 5 10 16 11 16 14 20 12 17 14 20 11 16 16 23 19 29 12 19 14 24 10 19 6 16 1 5v8l-5 15-7 10-8 8-10 6-9 3-5 1h-15l-11-3-12-6-6-5-9-12-29-44-29-43-29-44-9-13-1 150-4 13-7 11-10 9-14 7-9 2h-14l-12-3-11-6-8-7-7-10-5-12-1-5-1-153-29 43-29 44-29 43-18 27-8 9-11 7-13 4-10 1-13-2-12-5-11-8-7-9-5-10-3-10v-7l4-14 12-25 14-24 15-24 10-15 21-31 16-23 11-16 12-17 14-20 14-20 15-23 2-4-1-4-9-11-8-14-6-13-5-17-3-21v-17l2-20-56-24-56-24-24-10-2 6-7 10-9 10-10 7-13 6-10 4-7 1h-11l-17-3-27-9-39-17-32-13-18-8-19-11-11-9-9-9-7-12-3-9-1-5v-20l4-17 17-41 20-48 18-43 18-43 18-43 18-43 20-48 8-15 8-10 10-9 14-7Z"/></svg>
