<svg xmlns="http://www.w3.org/2000/svg" viewBox="0 0 1080 1080" fill="currentColor"><path d="M1004 114h16l14 3 14 7 10 10 7 14 3 14v18l-42 278-38 251-35 231-5 17-6 11-9 11-9 8-14 8-13 4-5 1h-22l-16-4-15-8-22-15-22-15-25-17-25-17-25-17-25-17-22-15-25-17-25-17-25-17-25-17-22-15-25-17-25-17-14-10-9-9-6-11-3-8-1-6v-16l3-11 6-12 9-10 8-7 11-11 8-7 12-12 8-7 11-11 8-7 12-12 8-7 11-11 8-7 11-11 8-7 11-11 8-7 12-12 8-7 11-11 8-7 11-11 8-7 12-12 8-7 11-11 8-7 11-11 8-7 12-12 8-7 11-11 8-7 11-11 6-5 3-5 1-9-3-8-6-5-3-1h-10l-12 7-43 29-30 20-43 29-44 29-23 16-44 29-43 29-39 26-43 29-18 12-43 29-16 10-14 7-15 5-14 3-10 1h-19l-20-3-43-13-72-22-72-22-29-9-10-6-7-8-4-8-2-8v-10l3-11 7-11 10-7 23-10 44-18 41-17 46-19 46-19 46-19 46-19 39-16 41-17 46-19 46-19 46-19 46-19 46-19 39-16 41-17 46-19 46-19 46-19 46-19 46-19 39-16 14-3Z"/></svg>
