<svg xmlns="http://www.w3.org/2000/svg" viewBox="0 0 1080 1080" fill="currentColor"><path d="M273 6h29l17 3 16 5 16 7 14 9 11 9 10 10 10 14 5 9 35 15 28 13 24 12 23 13 20 11 8 5 6-1 22-13 24-13 29-15 37-17 35-14 34-12 26-8 35-9 32-6 24-3 14-1h35l26 3 22 5 18 6 19 9 17 11 11 9 11 10 7 8 9 10 9 10 12 17 9 17 8 21 5 21 3 26v28l-2 22-5 30-8 32-12 36-13 33-9 20-12 25-12 24-13 23-10 17-15 24-9 13 1 5 14 21 12 20 10 18 12 23 13 28 12 30 11 31 10 35 7 33 4 27 1 10 1 31-2 28-5 25-6 18-8 16-8 12-11 12-7 7-8 7-5 6-8 7-12 10-14 9-19 10-19 7-24 6-21 3-33 2-8 8-13 10-14 8-14 6-19 5-7 1h-32l-20-4-16-6-17-9-10-8-10-9-10-11-7-10-8-14-6-16-2-5-28-13-27-13-22-12-23-13-5 1-24 14-22 12-26 13-32 14-31 12-38 13-32 9-36 8-32 5-19 2-16 1h-30l-23-2-27-5-24-8-21-11-11-8-10-9-9-9-9-12-10-9-7-7-10-14-9-17-7-21-5-25-1-11v-44l3-27 5-28 9-36 13-40 14-35 12-26 8-16 13-25 15-25 12-18 3-4-1-5-14-22-13-21-13-23-12-22-14-28-13-29-14-36-11-34-8-32-5-30-2-25v-20l2-23 5-24 7-20 8-16 9-15 9-11 11-12 14-15 11-9 15-11 23-12 22-8 26-6 26-3 22-1 10-7 17-9 15-5Zm574 153-23 3-28 6-27 8-41 15-28 12-28 13-14 7 5 5 17 14 11 9 13 11 11 9 13 12 8 7 12 11 8 7 17 16 13 13 8 7 13 13 7 8 17 17 7 8 13 14 7 8 12 14 5 5 9-15 12-22 10-19 15-33 10-25 8-25 5-21 3-21v-22l-3-17-6-16-8-11-8-8-11-7-11-5-16-4-9-1Zm-679 9-10 6-8 7-5 9-5 12-4 18v32l4 25 7 26 11 31 14 32 17 34 13 23 5 8 5-5 10-11 7-8 9-10 11-12 11-12 17-17 7-8 17-16 17-17 8-7 15-14 8-7 11-10 11-9 10-9 11-9 17-14 14-11 1-2-26-13-7-3-4 1-12 13-10 9-16 10-13 6-16 5-18 3h-25l-18-3-21-7-15-8-12-9-10-9-10-11-10-15-8-17-3-7Zm372 128-19 14-13 10-14 11-16 13-13 11-11 9-11 10-11 9-8 8-8 7-17 16-10 10-8 7-19 19-7 8-12 12-7 8-13 14-9 11-10 11-9 11-11 14 6 8 11 13 12 14 13 14 7 8 8 8 7 8 39 39 8 7 9 9 8 7 12 11 14 12 10 9 11 9 13 11 14 11 18 14 19 14 17 12 5-2 17-12 21-16 14-11 16-13 11-9 14-12 11-9 16-15 8-7 16-15 16-15 37-37 7-8 7-7 7-8 11-12 9-11 13-15 2-4-11-14-12-14-9-11-12-13-7-8-15-16-7-7-7-8-26-26-8-7-12-12-8-7-15-14-11-9-13-12-11-9-13-11-14-11-14-11-21-16-10-7ZM209 649l-13 24-17 34-13 32-12 36-6 28-2 20v14l3 21 5 14 7 13 9 8 14 7 16 4 18 2h13l25-2 29-5 32-8 40-13 32-13 20-9 13-7-5-5-17-13-14-12-10-8-14-12-14-12-12-11-8-7-10-9-15-14-8-8-8-7-31-31-7-8-11-11-7-8-13-14-8-10Zm663 1-14 15-7 8-12 13-8 8-7 8-36 36-8 7-10 10-8 7-15 14-8 7-14 12-10 9-11 9-17 14-15 12-12 9 4 3 16 7 12-10 13-8 15-7 18-5 16-2h18l20 3 20 6 17 8 12 8 11 9 9 9 10 14 8 16 2 5 8-1 16-7 11-8 7-7 8-13 4-12 2-12v-23l-4-25-8-30-10-29-13-32-15-31-12-22-1-2ZM530 399h17l19 3 17 5 19 9 12 8 11 9 14 14 11 15 11 21 5 15 3 13 1 9v22l-3 17-7 21-8 15-9 13-12 14-10 9-16 11-15 8-17 6-20 4h-24l-18-3-18-6-16-8-15-10-12-11-5-5-9-10-10-15-9-19-5-16-3-19v-19l3-19 6-18 8-16 8-12 8-10 8-9 14-11 14-9 14-7 15-5 14-3Z"/></svg>
