<svg xmlns="http://www.w3.org/2000/svg" viewBox="0 0 1080 1080" fill="currentColor"><path d="M889 19h10l15 3 9 4 10 6 7 6 9 12 6 13 4 20 39 242 41 254 1 7v17l-3 13-7 14-10 14-13 16-11 12-21 21-11 9-18 14-15 10-24 14-19 10-29 13-35 13-33 10-37 9-43 8-36 5-43 4-45 2H416l-44 2-30 3-29 5-26 7-15 6-11 6-7 5 1 12 20 131 1 8v13l-3 14-8 16-9 10-7 6-11 6-12 4-5 1h-17l-16-4-13-7-12-11-9-14-4-11-8-50-41-270-40-263-41-270-1-7v-16l4-16 7-13 11-12 10-7 12-5 7-2 8-1h10l15 3 16 8 11 9 9 13 5 12 3 14 6 39v4l18-8 23-7 34-7 31-4 28-2h80l61 3 104 7h52l32-3 29-5 28-7 36-12 26-11 24-12 21-13 17-13 12-11 11-11 13-17 9-14 9-10 8-6 12-6 10-3ZM541 298l-14 4-13 7-11 10-9 14-4 10-9 52-2 9-16 3-44 7-13 5-11 7-10 10-7 11-5 14-1 5v18l4 15 6 11 9 11 12 9 45 23 6 4-6 39-3 19v13l4 16 6 12 8 10 10 8 14 7 13 3h15l16-4 13-7 10-9 21-21 8-7 7-7 6 1 24 12 19 10 12 5 8 2 11 1 15-2 15-6 11-8 8-8 8-14 4-11 1-6v-17l-4-15-26-52 1-4 33-33 5-5 8-9 7-15 3-14v-10l-3-15-4-9-6-10-12-12-14-8-14-4h-20l-53 8h-2l-2-6-10-19-14-28-7-9-9-9-14-8-14-4Z"/></svg>
