<svg xmlns="http://www.w3.org/2000/svg" viewBox="0 0 1080 1080" fill="currentColor"><path d="M328 16h414l11 4 9 6 7 8 5 10 2 9v11l-3 12-15 43-18 53-12 34-6 11-7 7-10 6-9 3-12 1-12-2-30-8-32-6-35-4-17-1h-37l-28 2-30 4-34 7-36 10h-17l-12-4-10-7-7-8-5-10-23-67-19-55-5-14-1-5V51l3-10 6-10 7-7 9-5Zm190 274h44l30 3 30 5 24 6 33 11 19 8 25 12 23 13 19 13 16 12 11 9 15 13 23 23 9 11 10 12 11 15 10 15 9 15 10 18 13 28 10 28 7 23 7 34 3 22 2 28v28l-3 36-5 30-6 25-12 36-8 19-12 25-16 27-14 20-11 14-11 13-11 12-20 20-11 9-12 10-18 13-20 13-22 12-27 13-24 9-29 9-27 6-27 4-21 2h-48l-30-3-29-5-24-6-36-12-25-11-22-11-20-12-16-11-16-12-11-9-15-13-22-22-9-11-7-8-10-13-13-19-11-18-14-26-12-28-11-33-7-28-5-31-2-21-1-18v-20l2-31 4-28 6-28 8-27 10-27 11-24 12-22 10-16 11-16 10-13 9-11 9-10 7-8 17-17 8-7 13-11 16-12 18-12 13-8 18-10 25-12 26-10 26-8 25-6 25-4Zm9 123-13 4-10 6-8 8-15 23-13 20-15 23-15 23-12 18v2l-10 2-75 20-40 11-12 6-7 6-7 10-4 9-2 10v8l3 13 5 9 11 14 9 11 13 16 11 14 14 17 8 10 13 16 2 3-5 103-1 30 3 12 5 10 8 9 11 7 12 4h16l13-4 58-22 47-18 9-3 45 17 47 18 29 11 4 1h17l10-3 9-5 9-8 7-11 3-9 1-6-1-31-5-102 9-11 13-16 11-14 14-17 11-14 14-17 10-13 5-11 2-10v-9l-3-12-6-11-6-7-10-7-10-4-97-26-22-6h-3l-2-5-10-15-13-20-15-23-13-20-18-27-8-8-14-7-8-2Z"/></svg>
