<svg xmlns="http://www.w3.org/2000/svg" viewBox="0 0 1080 1080" fill="currentColor"><path d="M435 42h18l16 4 11 6 10 8 9 11 6 13 3 11v21l-4 15-5 16 1 13 5 12 13 27 7 21 3 17v28l-3 20-5 19-6 15-6 10-8 9-13 9-13 5-9 2h-16l-16-4-12-6-12-11-7-9-5-10-4-15v-17l4-16 4-11-4-11-13-27-7-20-4-16-2-16v-19l2-19 5-24 8-24 7-12 7-8 12-9 14-6ZM245 71l15 1 13 4 11 6 11 9 9 12 6 15 2 11v12l-3 15-5 14 1 10 13 27 7 20 3 15v32l-4 22-7 21-7 12-8 9-13 9-12 5-8 2h-21l-15-4-12-7-10-9-7-9-6-12-3-11-1-13 2-15 4-11 1-2-11-23-8-21-5-21-1-9v-18l3-25 6-23 5-13 5-9 8-10 12-9 13-6Zm408 0 14 1 13 4 10 5 9 7 9 10 8 16 3 12v19l-4 15-3 8v11l11 23 8 20 4 17 1 10v16l-2 18-5 21-5 13-6 11-11 12-12 8-14 5-5 1h-21l-11-3-16-8-12-11-7-11-5-12-2-9v-19l4-15 2-6-14-30-7-21-3-15v-33l3-20 5-19 6-16 7-11 10-10 13-8 11-4ZM62 398h788l13 4 11 7 9 9 8 16 2 9v19l18-3 10-1h17l20 3 20 6 18 8 14 8 11 9 14 14 13 17 10 17 6 14 6 20 4 21 1 8v33l-4 26-6 21-6 15-8 15-8 12-8 10-12 14-8 8-11 9-14 10-19 11-23 11-26 10-29 9-33 8-33 6-38 5-18 2-13 12-14 11-12 9-21 14-21 12-13 7-1 65-3 16-5 12-8 11-4 5-12 9-13 6-12 3H293l-15-4-13-7-10-9-7-8-5-9-5-13-1-5v-72l-5-2-23-12-23-15-14-10-16-13-15-13-22-22-9-11-7-8-10-13-16-24-10-17-12-23-11-26-10-30-7-28-5-30-2-19-1-16V444l3-12 6-12 9-10 10-7 11-4Zm857 188-27 12-2 2-5 32-6 25-6 20-4 12v3l11-3 24-10 18-11 14-12 6-9 5-13 1-7v-16l-4-13-3-6-7-6Z"/></svg>
