<svg xmlns="http://www.w3.org/2000/svg" viewBox="0 0 1080 1080" fill="currentColor"><path d="M760 115h36l21 3 21 5 20 7 25 12 15 9 17 12 13 11 12 11 12 12 9 11 10 12 14 20 13 21 10 16 12 23 12 28 12 36 8 29 7 34 5 33 3 30 1 15 1 31v15l-1 31-3 36-5 37-8 40-9 34-13 38-11 26-8 16-12 23-11 17-12 17-13 16-9 10-20 20-14 11-15 11-19 11-16 8-23 9-27 7-26 4-12 1h-33l-24-4-22-7-18-8-17-9-18-12-13-10-15-13-20-20-9-11-10-12-13-18-13-21-10-18-5-10v-2h-2l-2 6-10 19-13 21-14 20-13 16-9 10-7 8-13 13-8 7-15 12-16 11-15 9-21 10-24 8-19 4-8 1h-33l-21-2-26-5-21-6-20-8-16-8-11-6-18-12-14-11-12-11-8-7-12-13-14-17-14-20-12-20-12-22-11-24-12-31-10-32-8-32-7-38-4-30-3-35-1-25v-32l2-38 4-38 7-41 11-44 11-33 11-26 12-25 12-20 10-16 16-24 10-13 12-14 22-22 14-11 15-11 21-12 20-9 25-8 20-4 17-2h32l23 3 25 6 20 7 22 10 22 13 15 11 10 8 10 9 10 9 14 15 11 14 12 16 13 21 14 27 2 6h2l2-5 10-19 14-23 11-16 9-12 9-11 11-12 7-8 8-7 11-10 16-12 19-12 19-10 26-10 24-6ZM297 241l-17 3-15 6-14 8-13 10-13 12-10 11-13 17-10 15-13 24-10 22-9 24-8 27-7 31-5 35-2 24v9l2-3 10-21 8-12 8-10 7-8 11-9 14-9 16-7 18-4h21l17 4 14 6 12 8 12 11 9 10 10 15 11 19 7 16 7 22 5 25 3 31v30l-3 31-5 26-8 26-9 21-9 16-9 12-11 12-11 9-14 8-12 5-20 4h-21l-10-1 6 7 13 12 17 12 15 8 18 6 13 2h12l17-3 13-5 15-8 13-10 15-14 9-11 12-16 11-18 12-22 11-25 10-28 8-27 6-25 5-31 2-19 1-54v-22l-2-25-4-26-6-27-8-27-10-28-11-24-13-25-11-17-10-14-12-14-15-15-16-12-17-9-15-5-13-2Zm476 0-18 4-16 6-15 8-16 12-13 12-9 10-10 13-12 19-12 22-11 26-12 36-7 28-5 26-3 22v7l3-4 8-12 9-10v-2l4-2 9-8 15-9 16-6 15-3h19l15 3 14 5 14 8 13 11 10 11 10 15 11 19 7 16 6 18 6 26 3 24 1 16v21l-2 27-5 30-6 21-8 21-8 16-7 11-10 13-13 13-15 10-15 7-15 4-6 1-19 1 6 7 13 13 14 10 17 8 17 4h22l17-4 16-7 15-9 11-9 10-9 9-9 9-11 13-18 13-22 12-23 11-27 9-28 7-28 6-34 3-28 1-15v-52l-3-34-5-32-7-30-8-27-8-21-9-20-11-21-12-19-13-17-11-12-10-10-13-10-16-9-15-6-18-4Z"/></svg>
