<svg xmlns="http://www.w3.org/2000/svg" viewBox="0 0 1080 1080" fill="currentColor"><path d="M527 9h40l28 2 30 4 27 6 23 7 22 9 20 10 19 12 11 8 10 8 10 9 8 7 11 11 9 11 11 15 11 18 8 16 10 25 7 25 5 28 2 20v48l-3 25-6 27-10 30-14 29-13 22-13 18-11 14-13 15-12 13-13 13-5 5-17 17-8 7-14 13-8 7-12 12-11 14-9 14-7 15-4 13-3 19-1 22-4 20-7 16-9 13-6 7-14 11-15 8-16 5-6 1h-65l-14-3-13-5-12-7-10-8-9-9-9-14-7-16-3-14-1-12 1-36 3-26 6-29 7-23 9-22 10-21 13-22 11-16 9-12 8-10 12-14 14-15 17-17 8-7 15-14 24-24 9-11 10-13 8-13 7-15 3-14-1-13-4-12-4-8-8-10-11-9-15-7-14-4-16-2h-17l-20 3-16 5-16 8-11 8-6 5-9 12-5 10-3 16-3 17-5 15-8 15-8 10-7 7-11 7-10 5-14 4-6 1h-71l-17-4-16-8-11-8-9-10-8-13-5-12-4-14-2-15v-26l3-24 5-23 7-23 8-19 8-16 10-18 12-17 8-10 12-14 11-11 11-9 12-10 18-12 19-11 25-12 28-10 26-7 27-5 25-3Zm4 826 19 1 19 4 20 8 15 9 10 8 8 7 9 11 8 11 10 21 5 17 2 13v27l-4 20-6 17-8 15-9 12-9 10-11 10-15 10-15 7-16 5-9 2h-41l-17-4-15-6-15-8-13-10-15-15-10-14-8-16-5-14-3-12-1-7v-32l4-19 6-16 8-15 9-12 11-12 12-10 15-9 16-7 19-5Z"/></svg>
