<svg xmlns="http://www.w3.org/2000/svg" viewBox="0 0 1080 1080" fill="currentColor"><path d="M511 12h41l32 2 33 4 34 6 34 8 30 9 32 11 29 12 30 14 26 14 23 14 22 15 19 14 13 11 11 9 16 15 17 17 7 8 11 13 15 20 13 20 12 21 10 21 11 28 7 23 6 29 2 15 1 13v29l-2 20-4 21-5 16-8 20-8 16-9 16-10 13-15 15-13 9-21 11-24 8-27 6-43 8-20 6-13 7-8 8-5 10-2 7v23l5 23 10 28 13 30 11 27 11 33 6 26 3 18 1 11v30l-3 21-5 18-5 11-9 15-13 17-12 14-10 10-11 9-11 9-22 14-16 8-18 8-27 9-26 6-27 4-30 2h-27l-31-2-31-4-28-5-44-11-40-13-33-13-33-15-22-11-23-13-18-11-21-14-14-10-13-10-11-9-13-11-15-14-16-16-7-8-13-16-12-17-12-19-10-14-13-21-13-23-14-28-13-31-13-38-9-34-7-36-4-31-2-25v-61l3-34 5-33 8-36 9-31 10-28 12-28 8-16 13-25 13-21 13-19 14-19 11-13 9-11 7-7 7-8 17-17 8-7 11-10 14-11 18-14 30-20 19-11 23-12 26-11 36-12 28-7 26-5 32-4Zm-35 132-16 4-14 7-11 9-8 9-7 11-5 14-1 5v19l5 16 6 11 11 12 9 8 16 8 14 4h20l14-4 12-6 9-7 5-5 8-9 8-15 3-11v-21l-4-14-6-11-8-10-8-8-11-7-13-6-14-3Zm325 152-18 4-12 5-14 8-12 11-8 9-8 14-5 14-3 16v18l4 20 8 18 9 12 11 11 14 9 16 7 12 3 7 1h25l18-4 15-6 14-9 12-11 10-14 7-16 4-17 1-17-3-19-5-15-6-11-10-13-11-10-13-8-15-6-11-3-7-1Zm-561 43-16 4-16 8-10 8-9 10-8 16-3 13v18l4 16 6 11 9 11 10 8 15 8 14 4 8 1h13l14-3 10-4 10-7 10-9 9-13 5-11 3-14v-14l-3-14-5-12-9-12-9-9-11-7-12-5-9-2Zm68 274-16 4-12 6-10 8-9 10-8 14-4 13-1 5v20l4 14 6 11 9 10 7 7 13 8 15 5 6 1h20l15-4 14-7 14-12 8-11 5-10 3-11v-22l-4-15-8-15-11-12-10-8-13-6-13-3Zm249 156-16 4-12 6-9 7-5 4-10 13-6 12-3 11-1 7v8l3 15 4 10 8 12 8 9 14 10 13 6 13 3h18l15-4 13-7 10-8 9-10 7-11 5-14 1-5v-18l-4-14-6-12-9-11-10-9-14-8-11-4-10-2Z"/></svg>
