<svg xmlns="http://www.w3.org/2000/svg" viewBox="0 0 1080 1080" fill="currentColor"><path d="m609 7 22 2 14 2 21 7 16 9 17 12 16 13 18 13 15 9 15 6 15 3h49l16 4 10 5 7 7 4 8 2 13-2 14-5 12-11 18-13 18-13 17-11 14-11 13-9 11-12 14-6 9-1 2v13l6 12 11 12 10 9 18 13 27 18 19 14 15 12 11 9 14 12 12 11 12 11 21 21 7 8 10 11 9 11 12 15 14 19 15 23 9 15 13 24 11 24 9 24 7 23 5 21 4 26 1 12v39l-3 25-5 24-11 33-14 29-13 22-13 18-11 13-9 11-28 28-8 7-17 14-16 12-20 14-17 11-15 9-22 12-23 11-27 11-38 13-37 10-37 8-37 6-34 4-49 3h-55l-36-2-40-4-45-7-37-8-31-8-43-14-30-12-26-12-29-15-18-11-18-12-19-14-13-11-11-9-25-25-9-11-10-12-12-17-8-13-9-16-12-25-9-25-7-25-5-25-3-25-1-14v-24l3-23 6-26 9-27 11-25 12-24 16-27 14-21 10-14 10-13 11-14 12-14 9-10 7-8 8-8 7-8 10-10 8-7 8-8 8-7 14-12 14-11 17-13 17-12 19-12 21-12 24-12 19-8 18-10 14-11 5-9-1-7-18-36-10-19-11-22-11-26-6-18-4-17-2-16V88l2-14 5-14 9-13 11-10 16-9 13-5 13-1 13 2 15 6 19 12 30 20 12 5 4 1h17l13-4 14-8 19-14 16-12 19-12 17-7 12-3Zm-62 387-8 4-4 5-1 2v39h-13l-20 3-19 5-20 8-19 11-11 9-10 9-11 13-8 13-8 17-5 18-1 6v29l4 18 7 16 7 12 8 10 12 12 14 10 17 9 16 6 25 6 15 2 20 1v62l-29-3-25-5-25-7-28-11-8-4-4 2-10 15-8 16-5 15-2 11v14l4 9 4 6 9 9 14 8 14 6 18 5 19 4 33 4 29 2v41l3 6 8 5 4 1h9l10-5 3-5v-45h10l23-3 21-6 17-7 15-9 13-10 15-15 10-14 7-12 6-15 5-19 1-6v-29l-4-18-6-15-7-12-8-10-6-7-14-11-14-8-16-7-17-5-18-3-11-1h-22v-65l2 1 27 4 28 7 32 10 4-1 7-9 12-23 8-21 4-14v-9l-5-10-4-5-11-7-12-5-21-5-21-3-50-4v-37l-4-6-10-5Zm-16 143h3v62l-12-1-16-5-8-6-4-5-2-4v-14l3-8 8-9 12-6Zm40 150h12l20 3 9 3 5 5 3 5v16l-4 9-7 8-16 8-17 4h-5Z"/></svg>
