<svg xmlns="http://www.w3.org/2000/svg" viewBox="0 0 1080 1080" fill="currentColor"><path d="m995 11 16 2 12 5 10 7 7 7 8 14 3 10 1 9v104l-1 610-3 22-5 19-7 19-11 21-11 16-12 14-13 13-17 13-18 11-17 8-24 8-21 4-9 1h-32l-21-3-19-5-16-6-16-8-14-8-13-10-10-9-6-5-7-8-12-15-11-18-9-19-7-21-4-19-2-24 1-25 4-23 6-20 8-18 8-15 10-14 9-11 8-9 8-7 12-10 17-11 15-8 21-8 19-5 22-3h31l26 4 11 3V350l-81 18-109 24-109 24-141 31-91 20h-2v441l-4 24-6 20-8 18-10 18-12 16-11 12-11 11-17 13-15 9-21 10-18 6-18 4-14 2h-37l-24-4-23-7-20-9-18-11-13-10-12-11-9-9-11-14-9-14-11-21-9-27-4-21-1-10v-28l3-23 5-19 6-16 8-17 10-16 11-14 12-13 11-10 18-13 18-10 19-8 21-6 17-3 10-1h27l22 3 16 4V226l3-14 6-12 8-10 12-10 15-8 18-6 178-41 177-41 178-41 130-30Z"/></svg>
