<svg xmlns="http://www.w3.org/2000/svg" viewBox="0 0 1080 1080" fill="currentColor"><path d="M371 71h19l17 3 20 6 21 10 11 8 14 12 13 14 11 15 8 14 10 21 9 27 6 27 3 24v39l-3 23-6 27-9 27-10 22-10 16-11 14-14 15-13 11-18 11-15 6-16 5-17 3h-21l-17-3-17-5-18-8-11-7-10-8-12-11-11-12-11-15-10-18-10-24-6-19-5-21-3-19-1-10v-40l3-23 5-23 8-26 11-25 10-17 13-16 12-13 14-12 14-9 19-8 21-6Zm322 0h20l21 4 18 6 16 8 11 7 13 11 14 14 13 17 12 21 10 25 6 19 5 22 3 21 1 13v25l-3 27-5 24-6 20-7 19-8 17-10 16-9 11-9 10-12 12-15 11-17 9-24 8-17 3h-22l-20-4-21-7-19-10-14-11-18-18-11-14-8-13-8-16-7-17-6-18-6-26-3-21-1-12v-25l2-21 4-23 6-22 7-20 9-20 11-18 9-11 9-10 11-11 13-10 16-9 18-7 21-5ZM132 371h21l20 4 19 7 15 8 11 9 11 10 7 8 10 13 10 18 9 22 7 25 4 23 1 10v28l-2 18-5 24-10 30-8 17-7 11-11 14-18 18-13 9-16 8-15 5-20 4h-19l-16-3-21-7-17-9-10-8-10-9-7-7-11-14-10-17-10-24-7-24-5-30-1-21 2-27 5-25 6-20 9-22 9-16 9-12 11-12 8-8 13-10 16-8 17-6Zm793 0h21l19 4 17 6 14 7 12 9 12 11 11 12 9 13 8 14 9 22 7 25 4 22 1 9v35l-4 26-5 20-7 20-11 23-10 14-12 14-13 12-10 7-15 8-21 7-17 3h-18l-20-4-15-5-16-8-13-9-14-13-7-8-11-15-11-21-8-22-6-23-4-27v-33l4-27 7-26 8-21 10-19 8-11 11-13 8-8 14-11 17-9 21-7ZM527 554h25l28 2 33 5 27 6 24 7 24 9 20 9 21 11 18 12 13 10 10 9 8 7 10 10 7 8 14 18 11 18 8 16 8 20 7 25 4 21 2 18v29l-3 22-5 21-6 18-10 20-9 14-12 16-11 12-8 8-17 13-16 10-19 10-24 8-23 5-18 2h-21l-24-3-19-4-23-6-8-1-20-1h-22l-30 2-17 3-24 6-20 3-10 1h-21l-24-3-21-5-18-6-17-8-18-11-16-12-10-9-12-12-13-17-11-18-8-16-7-21-5-25-1-8v-35l3-23 5-23 8-26 9-20 10-18 12-17 11-13 9-10 15-15 11-9 15-11 18-11 23-12 19-8 22-8 29-8 36-7 27-3Z"/></svg>
