<svg xmlns="http://www.w3.org/2000/svg" viewBox="0 0 1080 1080" fill="currentColor"><path d="M849 64h26l19 3 15 6 15 8 12 9 11 10 9 11 10 14 13 20h4l14-6 9-2h20l12 3 14 7 10 9 8 9 6 12 3 10 1 7v13l-3 14-8 16-9 10-8 7-16 8-19 7-19 5-15 2h-13l-19-2-16-4-17-8-13-9-13-11-9-10-13-18-12-19-3-1-11 6-16 12-10 9-8 7-10 10-7 8-8 10 2 4 8 8 9 11 12 15 10 15 10 18 6 16 2 9v15l-3 9-11 14-14 17-11 14-13 16-11 14-14 17-11 14-13 16-11 14-4 5 3 10 7 20 7 24 7 36 3 29v49l-3 29-5 28-8 30-10 28-9 20-8 16-10 18-14 21-12 16-14 17-16 17-8 8-8 7-14 12-16 12-21 14-23 13-25 12-26 10-30 9-28 6-32 4-15 1h-34l-26-2-26-4-27-6-29-9-25-10-29-14-20-12-15-10-16-12-17-14-17-16-9-9-7-8-12-14-14-19-11-17-11-19-8-16-8-17-11-30-7-25-6-29-3-24-1-11v-52l3-27 5-28 8-30 10-28 9-20 8-16 13-23 11-16 12-16 9-11 11-12 7-8 11-11 8-7 14-12 19-14 15-10 19-11 21-11 26-11 27-9 28-7 22-4 25-3 17-1h29l26 2h8l10-12 12-16 11-14 14-18 10-13 14-18 14-18 10-13 14-18 4-5 9-5 6-2 9-1h9l21 3 26 8 21 9 16 8 15 8 5 3 3-1 9-11 14-15 11-12 8-7 8-8 11-9 15-12 17-11 18-10 19-8 20-6Z"/></svg>
