<svg xmlns="http://www.w3.org/2000/svg" version="1.1" xmlns:xlink="http://www.w3.org/1999/xlink" width="512" height="512" x="0" y="0" viewBox="0 0 512 512" xml:space="preserve" fill="currentColor"><g><path d="m178.262 481.681 5.475 4.501C204.672 503.394 230.336 512 256 512s51.328-8.606 72.263-25.818l5.475-4.501v-29.019H178.262zM241 240.204l-55.218-55.218 21.213-21.213L256 212.777l49.005-49.004 21.213 21.213L271 240.204v113.739h87.566c4.211-21.832 14.036-41.901 28.692-58.078 29.536-32.599 45.802-74.792 45.802-118.804 0-48.085-18.948-93.073-53.353-126.677C345.314 16.792 299.873-1.089 251.732.051c-45.079 1.063-87.723 19.263-120.079 51.248-32.36 31.99-51.041 74.424-52.604 119.484-1.576 45.469 14.081 89.253 44.088 123.287 15.376 17.439 25.697 38.115 30.144 59.873H241zM155.766 383.943h200.468v38.719H155.766z" opacity="1"></path></g></svg>
