<svg xmlns="http://www.w3.org/2000/svg" viewBox="0 0 1080 1080" fill="currentColor"><path d="M957 14h27l17 3 16 5 18 10 11 9 9 9 9 14 8 16 4 16 2 13v24l-4 25-6 23-10 27-12 26-11 22-13 23-17 28-13 20-17 25-12 17-14 19-14 19-11 14-11 14-13 16-8 10-9 11-11 13-9 11-13 15-9 11-13 15-12 14-9 10-7 8-9 10-7 8-9 10-11 12-9 10-12 13-15 16-14 15-4 9-1 8 2 11 4 8 8 9 8 4 8 1 9-2 11-7 14-10 18-13 21-16 13-10 14-11 11-9 17-14 10-8 11-5 6-1h10l13 4 11 8 7 10 3 9v17l-9 31-7 19-9 21-11 23-12 21-18 27-13 17-11 13-9 10-9 10-12 12-8 7-15 13-20 15-24 16-21 12-17 9-25 11-34 12-27 7-24 5-29 4-27 2h-35l-28-2-33-5-31-7-29-9-8-3-5 1-15 11-12 8-18 12-17 11-28 17-25 14-23 12-29 14-23 9-24 8-23 5-15 2H97l-21-4-13-5-16-9-10-8-5-4-10-13-9-16-4-10-4-18-1-8v-24l3-20 6-25 9-25 13-29 11-22 13-23 10-17 12-19 24-36 14-20 14-19 1-4-8-25-6-24-5-27-3-25-1-13v-53l3-30 4-24 7-30 8-26 10-26 11-24 10-19 12-20 13-19 13-17 11-13 9-10 12-13 9-9 8-7 14-12 17-13 17-12 25-15 22-12 25-11 30-11 25-7 27-6 26-4 21-2 21-1h22l30 2 29 4 25 5 26 7 21 7 5-2 19-14 20-14 39-26 19-12 25-15 24-13 23-12 19-9 27-11 21-7 22-5Zm-27 145-18 8-16 8-21 11-25 15-22 14-24 16v3l15 14 12 11 7 8 12 13 5 6 4-2 16-24 16-24 13-21 14-25 8-16 6-13v-2ZM208 822l-15 23-13 21-11 19-11 20-8 18v2l5-1 24-11 28-15 28-17 19-12-5-5-13-13-5-5-13-13-9-11Zm-59 103"/></svg>
