<svg xmlns="http://www.w3.org/2000/svg" viewBox="0 0 1080 1080" fill="currentColor"><path d="M903 9h11l15 4 17 8 12 8 10 8 12 11 8 8 9 11 10 13 14 20 7 15 3 13v17l-4 15-8 16-7 11-13 15-9 9-11 9-11 9-18 13-19 12-27 16 31 10 24 10 20 11 14 10 11 9 12 11 7 8 2 4 3 1 9 12 12 23 10 26 8 27 5 25 2 19v17l-2 13-4 10-4 6-6 4-11 2-15-3-21-7-2-1 1 16v18l-1 34-3 39-5 39-7 36-8 32-12 37-12 29-10 21-13 23-12 19-13 18-13 16-9 10-7 8-19 19-8 7-13 11-20 15-18 12-20 12-22 12-27 13-30 12-36 12-24 7-36 9-42 8-41 6-27 3-67 3h-80l-42-3-31-4-26-5-27-7-29-10-25-11-19-10-21-13-9-7-13-12-12-14-13-18-11-19-8-15-12-28-12-36-10-40-6-33-5-40-2-25-1-22v-46l2-35 6-63 6-40 8-38 10-37 12-36 11-28 12-26 13-26 11-19 10-16 13-19 12-16 11-14 10-11 7-8 7-7 7-8 13-12 10-9 14-11 13-10 15-10 25-15 17-9 25-11 28-10 30-8 25-5 40-4 65-8h3l-5-24V39l3-8 6-5 8-1 13 4 26 14 20 9 28 9 30 7 50 10 23 6 17 6 16 8 12 8 12 11 9 10 10 15 10 21 8 23 10-16 9-16 11-22 9-23 8-24 8-30 6-16 6-11 9-10 5-4 9-4ZM293 264l-13 4-10 6-8 8-8 13-8 16-6 15-4 14-1 7v23l4 13 6 10 9 8 10 4 13 1 12-3 14-7 10-8 13-13 12-17 12-23 3-9 1-6v-11l-3-11-5-10-9-10-10-7-11-5-9-2Zm306 159-12 2-12 5-14 10-10 10-11 15-8 14-6 15-4 14-1 13 2 12 5 10 8 7 10 4 10 2h14l13-4 16-8 15-10 15-13 8-9 9-14 4-10 2-14-2-14-7-14-9-10-10-7-13-5ZM280 549l-12 4-11 7-8 7-8 10-8 13-7 15-5 16-3 18v12l3 14 5 10 8 8 9 4 5 1h17l11-3 11-6 10-8 10-9 8-8 10-13 8-14 5-14 2-15-2-12-5-12-8-10-10-8-11-5-8-2Zm546 149-13 3-13 7-14 11-13 12-9 10-9 14-7 16-3 12v13l4 11 7 8 14 7 12 3h14l16-4 16-7 17-10 17-13 7-6 7-10 5-12 1-5v-12l-3-12-6-12-11-12-11-7-11-4Zm-305 39-12 4-10 7-16 13-15 15-9 13-8 16-4 14v16l4 10 6 7 10 6 13 4 5 1h10l17-4 20-8 14-8 16-12 8-8 7-10 5-12 2-12-1-12-4-11-6-9-5-6-10-7-11-5-7-2Zm-254 71-13 4-12 7-12 11-8 9-11 18-8 18-5 19v20l4 12 7 8 12 6 10 2h16l15-5 14-8 11-9 10-9 8-8 9-11 7-10 4-11 1-12-2-12-5-12-7-10-8-8-10-6-10-3Z"/></svg>
