<svg xmlns="http://www.w3.org/2000/svg" viewBox="0 0 1080 1080" fill="currentColor"><path d="M344 8h19l17 3 17 6 14 8 10 8 12 12 9 14 6 14 4 18v29l-4 17-5 12-8 13-9 11-11 9-10 7-15 7-13 4-11 2h-25l-17-4-12-5-12-7-11-9-5-5h-19l-19 3-18 6-15 8-11 9-7 7-9 13-8 16-6 17-5 23-2 16-1 14v35l2 29 4 34 8 49 10 50 11 49 11 11 9 14 5 11 8 19 9 14 8 10 7 8 11 9 11 8 16 9 14 6 20 6 16 3 10 1h21l21-3 18-5 18-8 13-8 9-7 12-9 14-7 14-4 17-2 10-11 9-11 10-11 9-11 12-14 14-17 11-14 16-21 14-20 10-15 12-20 12-22 10-24 5-15 4-18 1-6v-30l-4-17-5-12-6-11-11-14-8-8-8-6-14 1h-18l-20-4-12-5-11-6-10-8-6-5-9-11-9-14-6-15-4-16-1-9v-11l3-19 6-16 6-11 8-10 9-10 14-11 16-8 14-4 15-2h10l16 2 17 5 19 10 10 8 13 13 8 13 6 13 4 15 2 12 14 12 10 9 19 19 9 11 11 15 8 13 11 21 8 22 5 21 3 25v24l-3 27-5 24-8 26-11 28-16 33-14 25-14 22-12 18-12 17-14 19-10 13-11 14-14 17-11 13-9 11-9 10-7 8-12 14-13 14-4 17-7 16-9 13-11 12-8 8-17 13-13 8-18 10-22 10-25 9-23 7-28 6-20 3-11 1h-30l-8-1 2 14 5 17 8 15 8 10 11 10 15 9 20 8 23 6 18 3 10 1h29l26-3 23-5 20-6 24-10 20-10 23-14 18-13 16-13 14-12 9-9 8-7 15-16 11-12 9-11 11-13 12-16 13-18 14-20 14-22 5-8-2-4-10-16-8-16-7-21-3-16-1-20 2-20 4-17 8-20 9-16 10-13 9-10 8-8 13-10 15-9 17-8 21-6 11-2h34l19 4 15 5 16 8 15 9 13 11 10 9 11 13 10 16 7 15 5 15 3 16 1 10v19l-3 21-6 21-9 20-9 14-11 14-12 12-13 10-16 9-11 5-15 5-16 3-9 1h-11l-2 5-14 24-12 19-20 30-13 18-16 21-13 16-12 14-9 10-9 10-9 9-5 5-19 19-8 7-15 13-17 13-15 11-15 10-20 12-24 13-25 11-28 10-27 7-27 5-20 2h-48l-33-4-30-5-32-8-25-9-20-9-19-11-14-10-11-9-12-11-10-11-11-15-9-15-8-16-6-15-7-23-4-20-3-24-1-21v-22l-17-8-19-12-16-12-11-9-13-12-18-18-9-11-10-12-16-24-11-20-8-20-5-18-2-13v-21l3-16 5-12 5-9-4-19-10-47-9-49-6-43-3-28-2-30v-63l2-24 4-29 6-26 7-23 11-26 9-16 8-12 11-14 14-15 11-9 13-10 19-11 21-10 27-9 26-6 27-4 25-2 11-12 10-8 14-8 14-5Z"/></svg>
