<svg xmlns="http://www.w3.org/2000/svg" viewBox="0 0 1080 1080" fill="currentColor"><path d="M494 55h85l30 2 32 4 32 6 40 10 36 12 28 11 28 13 27 14 25 15 18 12 14 10 13 10 16 13 10 9 8 7 30 30 7 8 14 17 12 16 16 24 14 24 13 26 11 27 10 31 7 30 4 26 2 20 1 24-1 42-3 30-5 29-8 32-10 29-13 30-11 21-12 20-13 19-13 17-9 11-13 15-8 8-7 8-7 7-8 7-7 7-11 9-13 12-17 13-16 12-19 12-22 13-29 15-30 13-36 13-31 9-29 7-32 6-30 4-36 3-37 1-34-1-36-3-35-5-35-7-30-8-36-12-25-10-26-12-8-4-16 4-58 16-52 13-37 7-25 3H54l-15-3-12-5-9-7-6-9-3-9-1-16 3-19 6-19 10-24 12-24 10-19 9-17 12-27 5-15 1-9-12-20-14-27-10-22-10-27-8-28-6-29-3-22-2-26v-31l2-26 4-28 6-27 8-28 10-27 11-25 15-29 16-26 12-17 9-12 8-10 9-11 10-11 7-8 27-27 8-7 14-12 17-13 13-10 26-17 20-12 24-13 25-12 30-12 36-12 27-7 29-6 26-4Zm309 370-16 3-14 5-12 7-10 8-10 10-9 13-6 13-4 14-1 6v17l3 14 6 15 7 11 8 10 11 10 13 8 11 5 15 4h24l15-4 12-5 12-8 10-9 7-7 9-14 6-13 3-11 1-6v-20l-4-16-5-11-6-10-7-9-10-10-15-10-14-6-12-3-8-1Zm-516 1-15 3-15 6-12 7-11 9-9 10-7 11-5 11-4 17v23l3 14 6 15 9 13 7 8 14 11 15 8 17 5 5 1h22l16-4 16-7 12-9 10-10 9-14 6-14 4-16 1-17-2-15-5-16-6-11-7-9-11-11-13-9-13-6-16-4Zm258 0-14 2-13 4-14 7-10 8-10 10-9 14-6 14-3 11-1 8v15l3 17 6 15 9 14 8 8 5 5 7 6 12 7 15 5 12 2h14l17-3 16-6 15-9 13-12 9-12 7-15 4-16v-24l-3-15-5-13-7-11-9-10-10-9-14-8-13-5-13-3Z"/></svg>
