<svg xmlns="http://www.w3.org/2000/svg" viewBox="0 0 1080 1080" fill="currentColor"><path d="M494 29h16l20 4 33 11 11 5 17 9 23 14 12 8 16 11 21 16 13 11 10 9 12 11 10 12 12 20 7 16 5 17 2 15v11l-2 14-5 16-7 13-9 12-9 10-11 9-14 10-25 13-24 9-22 6-22 4-17 2h-47l-28-4-22-6-13-5 6 11 9 13 11 12 11 10 17 11 17 8 20 6 22 4 12 1h25l21-2 28-5 26-7 26-9 25-11 22-11 20-12 10-7 4-1h11l14 3 10 4 15 10 13 12 9 10 12 16 11 18 8 16 7 19 4 19 1 11v10l-2 17-4 15-5 12-8 13-9 11-12 12-14 10-18 10-21 8-14 4 10 6 19 8 16 5 15 3 10 1h13l16-2 17-5 12-5 15-8 15-11 10-9 8-7 5-6 5 1 16 9 12 9 13 11 8 8 11 14 9 15 7 16 6 21 2 14v32l-3 21-6 23-8 21-12 25-14 23-12 16-8 10-12 14-23 23-11 9-12 10-18 13-21 13-12 8-21 13-24 13-28 13-31 12-30 10-37 10-37 8-45 7-39 4-33 2h-69l-44-3-42-5-35-6-40-9-35-10-35-12-31-13-29-14-25-14-27-18-17-13-11-9-12-11-13-12-7-8-10-11-13-17-14-21-9-16-8-16-8-19-7-21-7-28-4-27v-34l3-24 6-25 7-19 10-19 9-12 11-12 9-8 15-10 10-4 4-1h12l9 4 5 4 7 10 6 15 6 21 10 19 10 13 9 10 15 15 14 11 12 9 17 11 21 12 23 11 26 10 22 6 17 3 19 1 7-1-21-14-16-12-10-8-13-11-12-11-24-24-9-11-11-13-12-17-11-17-10-18-12-25-9-24-7-26-4-22-2-20v-33l3-26 6-26 8-24 11-24 11-19 8-12 9-12 9-11 11-12 21-21 11-9 15-12 20-14 25-15 24-13 24-12 26-11 30-11 10-6 8-8 6-12 3-13V77l-3-19-2-8v-8l3-7 5-4Z"/></svg>
