<svg xmlns="http://www.w3.org/2000/svg" viewBox="0 0 1080 1080" fill="currentColor"><path d="M305 4h20l15 4 12 6 11 9 7 8 6 10 5 13 1 4v18l-4 10-9 10-12 9-24 13-23 13-23 13-20 12-21 13-15 10-17 12-14 13-8 7-40 40-7 8-15 16-11 12-9 10-9 10-12 11-14 7-4 1H59l-12-4-10-6-10-9-7-8-7-14-3-9-1-6v-19l4-16 9-20 10-20 14-23 13-18 14-17 11-12 23-23 11-9 16-13 20-15 20-13 21-12 25-12 24-9 26-8 28-6Zm451 0h21l31 6 27 8 27 10 29 14 22 13 16 11 16 12 16 13 11 9 13 12 20 20 9 11 12 15 16 24 12 21 12 25 6 18 1 6v17l-4 16-6 12-8 10-7 7-13 8-12 4h-13l-11-4-12-9-16-16-7-8-11-12-11-12-11-12-7-7-7-8-27-27-8-7-13-12-18-13-22-14-21-13-24-14-27-15-23-13-14-8-12-11-6-9-3-10v-9l4-16 6-12 7-9 8-8 13-8 14-5ZM510 126h57l31 3 35 6 36 9 30 10 29 12 30 15 25 15 12 8 17 12 16 13 11 9 12 11 15 14 9 10 11 12 11 14 14 18 15 23 9 15 12 22 11 23 11 28 9 28 8 33 6 36 3 33v49l-3 33-6 36-8 33-12 36-10 24-12 25-14 25-20 30-13 17-1 2 11 15 9 15 8 16 6 15 6 21 3 20v21l-3 19-5 15-8 15-7 9-7 8-12 9-15 8-12 4-11 2h-27l-19-4-19-7-15-8-12-8-14-11-10-9-7-8-9-10-8-11-5 1-29 11-27 8-30 7-30 5-30 3-31 1-28-1-31-3-35-6-32-8-36-12-13-5h-2l-10 13-11 12-13 13-13 10-16 10-16 8-18 6-16 3h-26l-18-4-14-6-12-8-12-11-9-12-8-16-4-12-3-18v-26l4-22 5-17 9-21 8-15 13-19 2-3-15-20-18-27-11-19-12-23-9-19-11-29-9-29-7-30-5-29-3-29-1-18v-31l2-30 4-30 7-34 8-29 9-26 12-28 13-26 13-22 16-24 12-16 13-16 9-10 7-8 24-24 11-9 9-8 13-10 18-13 19-12 19-11 25-13 28-12 36-12 26-7 31-6 32-4Zm19 187-15 4-14 8-10 9-7 9-7 14-3 11-1 10v92l1 155 3 12 4 9 6 10 9 10 10 7 12 6 12 3h19l196-22 16-3 12-5 11-8 6-5 9-12 5-11 4-16v-15l-4-16-7-14-9-11-12-9-10-5-14-4h-24l-118 13-2 1V413l-1-44-3-12-7-14-8-10-9-8-12-7-12-4-5-1Z"/></svg>
