<svg xmlns="http://www.w3.org/2000/svg" viewBox="0 0 1080 1080" fill="currentColor"><path d="M776 21h23l18 3 18 6 17 9 10 8 10 9 12 15 9 14 6 14 3 13 1 8v38l-4 30-7 34-16 64-7 32-1 8 13 11 11 9 17 14 13 11 14 11 15 13 10 8 13 11 14 11 15 13 12 12 10 14 8 15 6 18 3 14 1 11v14l-2 16-5 18-8 17-10 15-9 11-4 5-13 10-17 9-24 8-23 5-26 4-33 3-62 4-27 3h-7l-1 6-6 18-11 42-12 44-12 36-9 21-9 17-9 13-11 12-8 7-22 12-16 6-13 3-8 1h-25l-18-3-18-6-16-8-13-9-12-11-10-12-10-17-12-23-12-22-15-28-14-26-4-7-5 5-9 10-11 14-13 15-9 11-14 15-7 6-1 4 1 8v20l-3 17-6 16-6 11-10 13-9 11-13 16-13 16-11 14-11 13-8 10-13 16-11 14-11 13-8 10-5 6-8 7-10 7-15 8-17 5-12 2h-25l-17-4-16-7-11-7-12-11-7-7-10-15-8-17-5-19-1-8v-17l3-17 4-12 8-15 11-14 9-11 13-16 13-16 13-16 11-14 11-13 8-10 13-16 13-16 9-10 7-7 10-7 16-8 12-4 17-3 14-17 11-14 13-16 13-17 4-6-36-5-44-6-28-6-21-7-19-9-14-10-10-10-12-18-8-15-6-18-3-17v-25l3-18 6-18 8-16 9-13 12-13 14-11 14-10 19-14 19-14 19-14 18-13 16-12 18-13-4-17-24-94-13-50-2-13v-25l4-20 6-16 10-18 10-13 8-9 14-11 13-8 14-6 19-6 5-1h27l19 4 18 6 25 11 23 12 22 13 24 15 22 14 24 15 22 12 11-6 22-14 19-12 24-15 19-12 19-12 19-12 15-9 11-5 16-5Z"/></svg>
