<svg xmlns="http://www.w3.org/2000/svg" viewBox="0 0 1080 1080" fill="currentColor"><path d="M335 11h51l27 3 26 5 22 6 20 7 20 9 22 13 14 11 10 9 10 10 10 13 9 15 7 15 18-44 9-13 9-9 10-7 12-7 15-6 21-6 23-4 11-1h37l26 3 26 6 19 7 16 8 18 10 12 9 10 9 8 8 11 15 10 18 6 17 3 13 1 8v15l-3 16-6 14-7 9-9 9-11 7-11 5-6 2 23 2 23 5 20 7 21 10 19 12 11 9 10 9 9 8 7 8 11 14 11 17 10 19 9 25 5 21 2 16v30l-3 21-5 19-6 16-6 12-8 9-11 7-5 2-11 1-12-3-10-5-11-9-9-7-12-8-36-24-20-13-12-8 2 4 9 12 8 15 7 19 5 21 2 14 1 14v19l-2 25-5 28-7 25-9 24-9 19-12 20-11 14-12 13-10 8-10 6h-7l-9-6-8-8-9-11-12-14-9-11-5-5v-2l-4-2-6-7-15-11-17-11-22-14-17-11-21-14-17-12-13-10-13-11-8-7-12-12-10-14-3-6-3 4-9 25-7 25-5 28-2 20v53l3 29 5 32 7 34 23 95 6 32 2 17v34l-3 16-6 16-7 11-9 10-7 7-14 9-9 4-21 6-21 4-26 3-14 1h-50l-32-3-28-5-24-7-20-8-16-9-10-8-10-10-7-11-5-12-2-8-1-17 3-21 9-43 11-44 15-53 17-54 17-49 14-37 14-34 11-25 13-28 12-24 13-23 11-18-12 5-29 13-34 11-26 6-31 4-16 1h-41l-36-2-53-5-34-3-14-3-12-5-8-6-6-7-5-12-2-14v-13l3-25 8-37 12-44 7-19 12-24 15-24 16-21 11-13 9-10 19-19 11-9 15-11 13-8 15-8 16-6 20-4-12-3-29-6-16-6-11-6-13-10-15-15-10-13-5-11-2-8v-15l3-11 7-14 10-13 13-13 17-13 17-11 27-14 21-8 24-6 23-4Zm537 447"/></svg>
