<svg xmlns="http://www.w3.org/2000/svg" viewBox="0 0 1080 1080" fill="currentColor"><path d="m456 13 16 1 15 5 23 11 22 13 19 13 16 13 8 7 10 9 9 9 7 8 12 15 12 17 11 19 10 19 11 28 7 23 5 22 4 24 2 20 1 23v13l-2 24-6 34-7 31-8 33-3 19-1 10v10l2 13 4 8 5 3 6 1 10-3 6-7 6-14 7-25 8-32 10-30 13-30 7-12 10-10 14-7 9-2h12l13 4 9 6 7 8 4 8 3 12 2 28 4 24 5 20 7 21 11 25 24 47 10 21 11 28 8 26 6 27 4 28 1 12 1 29-1 25-3 28-5 26-6 23-9 26-9 21-11 22-13 21-12 17-13 16-7 8-11 12-11 11-8 7-13 11-19 14-19 12-16 9-15 8-28 12-30 10-29 7-23 4-29 3-32 1-35-2-27-4-28-6-29-9-25-10-27-13-17-10-21-14-12-9-11-9-14-12-23-23-9-11-10-12-13-18-12-19-12-22-9-19-10-26-8-26-6-28-4-27-2-38 1-28 3-27 5-27 8-29 10-26 12-25 11-20 13-20 10-14 10-13 13-16 10-11 7-8 14-15 15-15 7-8 14-15 9-11 11-14 12-17 12-20 8-15 8-19 8-24 5-22 3-21 1-12v-38l-3-30-5-29-5-23-1-8V69l3-15 8-16 8-9 10-7 10-5 11-3Z"/></svg>
