<svg xmlns="http://www.w3.org/2000/svg" viewBox="0 0 1080 1080" fill="currentColor"><path d="M76 57h926l16 4 11 6 10 8 7 8 7 12 4 12 1 6v858l-4 16-7 13-9 10-8 7-14 7-10 3-9 1H81l-13-2-13-5-11-7-7-6-8-11-6-12-3-13V112l4-15 7-13 11-12 10-7 11-5Zm117 104-16 4-10 5-10 8-8 9-7 14-3 11v271l4 14 7 12 8 9 13 9 13 5 12 2h258l12-2 13-5 10-7 5-4 9-12 6-13 2-10V213l-3-12-6-12-9-11-10-8-13-6-13-3Zm436 4-12 2-12 6-9 9-6 12-1 4v15l4 12 7 9 7 6 10 5 4 1h297l12-4 9-7 7-9 4-9 1-5v-12l-3-10-6-10-7-7-12-6-12-2Zm-4 150-11 3-9 5-5 4-7 10-4 11v15l4 12 7 9 7 6 11 5 4 1h295l10-3 10-6 7-8 5-10 2-7v-12l-4-13-6-8-9-8-12-5-6-1Zm-4 141-11 4-8 6-8 9-5 13v16l4 11 6 8 9 8 9 4 4 1h298l11-4 9-7 6-7 5-11 1-5v-12l-3-10-6-10-9-8-10-5-4-1Zm20 186-15 4-11 6-12 11-7 10-5 11-2 9v168l3 11 7 14 9 10 7 6 14 7 12 3h255l12-3 15-8 9-8 9-13 5-13 2-11V698l-3-15-7-14-8-10-12-9-13-6-10-2Zm-462 5-13 4-9 6-8 9-4 8-2 9v10l4 13 8 11 10 7 12 4h290l12-4 11-8 7-10 4-13v-11l-3-10-6-10-7-7-11-6-9-2Zm-2 176-10 3-11 7-8 10-4 10-1 5v10l4 13 6 9 9 8 12 5 6 1h284l12-3 10-6 7-7 7-14 1-5v-11l-4-13-7-10-9-7-9-4-5-1Z"/></svg>
