<svg xmlns="http://www.w3.org/2000/svg" viewBox="0 0 1080 1080" fill="currentColor"><path d="M859 21h14l13 4 11 8 8 11 4 13 3 25 6 27 13 41 9 20 8 14 12 16 7 8 11 9 11 8 22 11 9 7 9 9 8 14 4 12 1 7v13l-4 18-17 58-21 71-25 84-33 110-33 110-19 63-25 83-19 63-8 16-9 10-8 7-14 7-13 3-198 23-389 45h-20l-20-4-21-7-16-8-15-9-13-10-10-9-13-13-13-17-10-16-11-21-8-21-7-23-6-28-3-22-2-23v-29l3-16 26-88 24-82 22-75 22-75 22-75 22-75 27-92 22-75 9-30 6-12 5-5 7-6 8-4 15-3Zm-9 249-24 81-24 82-22 75-27 92-22 75-20 68-5 12-9 10-10 6-10 3-528 66-1 1v8l4 23 6 21 7 16 9 14 11 11 10 6 8 1 467-54 60-7 6-1 6-18 27-90 32-106 32-107 21-70 25-84 24-81-1-3-9-7-10-9-8-7-13-14-10-13Z"/></svg>
