<svg xmlns="http://www.w3.org/2000/svg" viewBox="0 0 1080 1080" fill="currentColor"><path d="M420 12h12l23 6 206 59 57 16 206 59 85 24 31 9 11 6 9 9 6 12 2 10v94l-1 373-3 26-3 16-10 23-8 15-10 13-13 13-16 12-18 14-13 10-13 10-13 10-13 10-13 10-13 10-13 10-13 10-13 10-13 10-13 10-13 10-13 10-13 10-13 10-13 10-13 10-13 10-17 12-16 9-15 6-17 5-21 3h-27l-27-4-21-6-61-22-49-18-58-21-49-18-58-21-49-18-58-21-49-18-58-21-38-14-15-6-12-7-10-9-7-10-5-13-1-7v-10l3-13 5-12 7-9 7-7 14-9 32-19 28-17 32-19 28-17 32-19 28-17 32-19 28-17 32-19 28-17 32-19V356l-1-227V77l1-7 1-20 3-12 6-10 8-8 12-6Zm89 155v62l1 228 1 71 21 7 65 20 74 23 71 22 71 22 71 22 49 15h3V290l-66-19-83-24-90-26-90-26-83-24Zm-83 557-16 4-16 8-19 12-24 15-19 12-12 8-4 5-2 10 3 8 7 6 30 11 53 19 50 18 24 8 5 1h24l15-4 16-8 19-14 17-13 21-16 16-12 4-6 1-3v-8l-3-6-7-6-41-13-78-24-33-10-9-2Z"/></svg>
