<svg xmlns="http://www.w3.org/2000/svg" viewBox="0 0 1080 1080" fill="currentColor"><path d="m357 11 33 1 26 3 31 6 28 8 17 6 49 20 54 22 37 15 49 20 54 22 22 9 7 6 3 5 1 4v11l-4 15v12l3 12 7 12 7 7 12 7 21 8 15 2 16-3 13-7 8-6 15-8 17-5 6-1h23l15 3 28 11 44 18 16 8 10 8 8 11 5 11 2 8v22l-6 18-17 41-19 47-20 49-22 54-15 37-20 49-8 16-9 10-14 9-12 4-5 1h-16l-15-4-49-20-24-10-14-8-11-9-9-10-8-13-6-14-6-27-6-12-9-10-11-7-22-9-10-2h-8l-13 3-11 6-8 7-6 9-5 10-7 6-5 2h-12l-14-5h-2l-15 37-20 49-22 54-22 54-15 37-20 49-22 54-22 54-15 37-20 49-12 29-7 12-10 11-14 9-12 5-9 2h-22l-15-4-49-20-37-15-24-10-13-9-8-8-7-11-5-11-3-12v-22l4-15 17-41 21-52 20-49 22-54 22-54 15-37 20-49 22-54 22-54 15-37 7-17v-3l-16-7-8-7-5-10-1-4v-9l2-8v-14l-4-13-7-12-10-12-14-11-15-10-27-14-26-10-25-8-30-7-24-4-20-2-31-1-14-2-12-5-9-7-8-9-6-12-2-7-1-14 2-12 8-16 9-15 12-16 11-13 9-10 23-23 11-9 16-13 17-12 17-11 21-12 24-12 28-11 21-7 24-6 28-5 19-2Z"/></svg>
