<svg xmlns="http://www.w3.org/2000/svg" viewBox="0 0 1080 1080" fill="currentColor"><path d="M283 23h442l16 3 13 5 11 6 11 9 9 10 8 13 5 12 3 11 1 7v18l-3 15-33 110-29 96 81 1 17 3 14 5 15 8 11 9 10 10 9 13 7 14 5 16 2 14v16l-3 17-4 12-7 14-16 25-13 20-11 17-16 25-13 20-11 17-16 25-13 20-16 25-13 20-11 17-16 25-13 20-11 17-16 25-13 20-11 17-16 25-13 20-16 25-13 20-11 17-16 25-13 20-11 17-16 25-7 9-10 9-14 8-10 4-14 3h-19l-15-3-15-6-11-7-10-9-9-10-6-10-5-13-3-17v-13l17-166 20-193 1-7H261l-16-3-15-6-11-7-10-9-9-10-8-14-4-10-3-13V116l4-18 6-15 8-14 9-11 10-10 16-11 17-8 19-5Z"/></svg>
