<svg xmlns="http://www.w3.org/2000/svg" viewBox="0 0 1080 1080" fill="currentColor"><path d="M528 31h24l18 4 14 6 12 8 10 9 9 10 10 17 15 27 14 25 15 27 14 25 14 25 15 27 14 25 15 27 5 9 28 6 126 25 97 19 15 4 14 6 12 8 12 11 9 12 8 16 5 16 1 6v26l-4 17-6 13-6 10-9 11-16 17-12 13-14 15-11 12-14 15-12 13-12 13-14 15-12 13-12 13-14 15-11 12-14 15-5 6 1 16 28 234 1 9v17l-3 16-5 14-6 11-10 13-8 8-13 9-14 7-19 5-9 1h-10l-15-2-16-5-26-12-39-18-39-18-41-19-28-13-39-18-24-11-9 3-36 17-33 15-34 16-33 15-32 15-33 15-28 13-16 5-15 2h-10l-19-3-16-6-12-7-10-8-10-10-10-15-6-14-4-18v-23l30-251v-5l-15-16-12-13-12-13-14-15-11-12-14-15-12-13-12-13-14-15-12-13-12-13-14-15-12-13-12-13-10-15-6-13-4-16-1-9v-12l2-14 5-16 7-14 9-12 10-10 10-7 16-8 13-4 121-24 122-24 13-2 2-5 14-26 12-21 16-29 13-23 15-27 15-27 13-23 15-27 13-23 8-10 12-12 14-9 14-6Z"/></svg>
