<svg xmlns="http://www.w3.org/2000/svg" viewBox="0 0 1080 1080" fill="currentColor"><path d="M821 12h20l25 3 23 5 21 7 21 10 18 11 12 9 11 9 16 15 26 26 7 8 10 12 9 13 9 15 8 16 7 18 6 23 4 27v34l-4 27-6 23-7 18-10 20-14 21-8 10-9 10-9 10-42 42 3 11 2 12v10l-2 12-5 13-7 10-9 10-122 122-10 7-10 5-10 3-8 1h-10l-12-2-11-3-284 284-10 8-16 8-79 24-69 21-69 21-69 21-63 19-10 2H69l-13-3-14-7-11-9-8-10-7-15-2-9v-22l9-31 21-69 21-69 21-69 21-69 15-49 8-16 9-10 283-283-3-10-2-9v-18l4-16 6-11 12-14 120-120 10-8 14-7 13-3h17l16 4 4 1 57-57 14-11 18-12 18-10 19-8 21-6 21-4ZM227 736l-9 29-23 75-21 69v4l12-3 72-22 69-21 23-7-1-5-12-19-10-13-9-11-11-12-9-10-8-8-8-7-11-10-20-15-19-12Z"/></svg>
